%FSTAX23Y23*%
%MOIN*%
%SFA1B1*%

%IPPOS*%
%ADD27C,0.019680*%
%ADD29C,0.005910*%
%ADD30C,0.196850*%
%ADD31R,0.196850X0.039370*%
%ADD32C,0.059060*%
%LNcsgb-1*%
%LPD*%
G36*
X01102Y01003D02*
D01*
Y00929*
Y00803*
Y00728*
Y0*
X0*
Y00728*
Y01003*
Y01181*
X01102*
Y01003*
G37*
%LNcsgb-2*%
%LPC*%
G36*
X00651Y001D02*
X0064Y00099D01*
X0063Y00095*
X00624Y0009*
X00651Y00064*
X00677Y0009*
X00672Y00095*
X00661Y00099*
X00651Y001*
G37*
G36*
X00312Y00175D02*
X00041D01*
Y00041*
X00312*
Y00175*
G37*
G36*
X01062Y00255D02*
X00905D01*
Y0013*
X00905*
Y00092*
X00904*
Y00041*
X00905*
Y00039*
X01062*
Y00041*
X01063*
Y00092*
X01063*
Y0013*
X01062*
Y00255*
G37*
G36*
X00683Y00085D02*
X00656Y00059D01*
X00683Y00032*
X00687Y00038*
X00691Y00048*
X00692Y00059*
X00691Y00069*
X00687Y00079*
X00683Y00085*
G37*
G36*
X00619D02*
X00615Y00079D01*
X0061Y00069*
X00609Y00059*
X0061Y00048*
X00615Y00038*
X00619Y00032*
X00645Y00059*
X00619Y00085*
G37*
G36*
X00551Y00096D02*
X00541Y00095D01*
X00532Y00091*
X00524Y00085*
X00518Y00077*
X00514Y00068*
X00513Y00059*
X00514Y00049*
X00518Y0004*
X00524Y00032*
X00532Y00026*
X00541Y00022*
X00551Y00021*
X0056Y00022*
X0057Y00026*
X00577Y00032*
X00583Y0004*
X00587Y00049*
X00588Y00059*
X00587Y00068*
X00583Y00077*
X00577Y00085*
X0057Y00091*
X0056Y00095*
X00551Y00096*
G37*
G36*
X00451D02*
X00441Y00095D01*
X00432Y00091*
X00424Y00085*
X00418Y00077*
X00414Y00068*
X00413Y00059*
X00414Y00049*
X00418Y0004*
X00424Y00032*
X00432Y00026*
X00441Y00022*
X00451Y00021*
X0046Y00022*
X0047Y00026*
X00477Y00032*
X00483Y0004*
X00487Y00049*
X00488Y00059*
X00487Y00068*
X00483Y00077*
X00477Y00085*
X0047Y00091*
X0046Y00095*
X00451Y00096*
G37*
G36*
X00651Y00053D02*
X00624Y00027D01*
X0063Y00022*
X0064Y00018*
X00651Y00017*
X00661Y00018*
X00672Y00022*
X00677Y00027*
X00651Y00053*
G37*
G36*
X0006Y00096D02*
Y00095D01*
Y00096*
G37*
G36*
Y00094D02*
Y00093D01*
Y00094*
G37*
G36*
Y00093D02*
Y00091D01*
Y00093*
G37*
G36*
Y00091D02*
Y00089D01*
Y00091*
G37*
G36*
X00205Y00087D02*
Y00087D01*
Y00087*
G37*
G36*
X0006Y00089D02*
Y00087D01*
Y00089*
G37*
G36*
Y00087D02*
Y00086D01*
Y00087*
G37*
G36*
X00205Y00086D02*
Y00086D01*
Y00086*
G37*
G36*
X0006Y00086D02*
Y00086D01*
Y00086*
G37*
G36*
Y00086D02*
Y00084D01*
Y00086*
G37*
G36*
X00205Y00084D02*
Y00083D01*
Y00084*
G37*
G36*
X0006Y00084D02*
Y00083D01*
Y00084*
G37*
G36*
Y00083D02*
Y00081D01*
Y00083*
G37*
G36*
X00205Y00079D02*
Y00079D01*
Y00079*
G37*
G36*
X0006Y00081D02*
Y00079D01*
Y00081*
G37*
G36*
Y00079D02*
Y00077D01*
Y00079*
G37*
%LNcsgb-3*%
%LPD*%
G36*
X00305Y00118D02*
Y00049D01*
X00049*
Y00118*
Y00167*
X00305*
Y00118*
G37*
%LNcsgb-4*%
%LPC*%
G36*
X00145Y00162D02*
Y00158D01*
X00145Y00159*
X00145Y00159*
X00144Y0016*
X00144Y0016*
X00144Y00161*
X00143Y00161*
X00143Y00161*
X00143Y00161*
X00143Y00161*
X00142Y00162*
X00142Y00162*
X00141Y00162*
X00141Y00162*
X0014*
X00139Y00162*
X00139*
X00138Y00162*
X00137Y00161*
X00137Y00161*
X00137Y00161*
X00137Y00161*
X00136Y00161*
X00136Y0016*
X00136Y0016*
X00136Y00159*
X00135Y00159*
X00135Y00158*
Y00157*
X00135Y00157*
X00136Y00156*
X00136Y00156*
X00136Y00155*
X00136Y00155*
X00137Y00154*
X00137Y00154*
X00137Y00154*
X00137Y00154*
X00138Y00154*
X00138Y00154*
X00139Y00154*
X00139Y00154*
X0014Y00153*
X0014*
X00141Y00154*
X00141Y00154*
X00142Y00154*
X00143Y00154*
X00143Y00154*
X00144Y00155*
X00144Y00155*
X00144Y00155*
X00144Y00155*
X00144Y00156*
X00145Y00156*
X00145Y00157*
X00145Y00158*
Y00162*
G37*
G36*
X00225Y0015D02*
X00223D01*
X00223Y0015*
X00222*
X00222Y0015*
X0022Y0015*
X00219Y0015*
X00217Y00149*
X00216Y00148*
X00214Y00147*
X00214*
X00214Y00147*
X00214Y00147*
X00213Y00146*
X00212Y00145*
X00212Y00144*
X00211Y00143*
X00211Y00141*
X00211Y0014*
Y00118*
X00217*
X00218Y00122*
X00219*
X00219Y00122*
X00219Y00122*
X00219Y00121*
X0022Y00121*
X00221Y0012*
X00221Y0012*
X00222Y00119*
X00223Y00119*
X00223Y00119*
X00223Y00118*
X00224Y00118*
X00224Y00118*
X00225Y00118*
X00226Y00118*
X00228Y00118*
X00229Y00118*
X0023*
X0023Y00118*
X00231Y00118*
X00232Y00118*
X00233Y00118*
X00234Y00119*
X00235Y00119*
X00236Y0012*
X00236Y0012*
X00237Y0012*
X00237Y00121*
X00237Y00122*
X00238Y00123*
X00238Y00124*
X00239Y00126*
X00239Y00127*
Y00128*
Y00128*
X00239Y00128*
X00239Y00129*
X00238Y0013*
X00238Y00131*
X00237Y00133*
X00237Y00134*
X00236Y00134*
X00235Y00135*
X00235*
X00235Y00135*
X00235Y00135*
X00235Y00135*
X00234Y00135*
X00234Y00136*
X00233Y00136*
X00233Y00136*
X00232Y00136*
X00231Y00137*
X0023Y00137*
X00229Y00137*
X00228Y00137*
X00227Y00137*
X00226Y00137*
X00225Y00138*
X00219Y00138*
Y00139*
Y00139*
Y00139*
X00219Y0014*
X00219Y0014*
X0022Y00141*
X0022Y00142*
X0022Y00142*
X00221Y00143*
X00221Y00143*
X00221Y00143*
X00221Y00143*
X00222Y00143*
X00222Y00144*
X00223Y00144*
X00223Y00144*
X00224Y00144*
X00225*
X00226Y00144*
X00226Y00144*
X00227Y00144*
X00229Y00143*
X00229*
X00229Y00143*
X0023Y00143*
X0023Y00143*
X00231Y00142*
X00231Y00142*
X00233Y00142*
X00236Y00147*
X00236Y00147*
X00236Y00148*
X00235Y00148*
X00234Y00148*
X00233Y00148*
X00233Y00149*
X00231Y00149*
X0023Y00149*
X0023*
X0023Y00149*
X0023Y0015*
X00229Y0015*
X00228Y0015*
X00227Y0015*
X00226Y0015*
X00225Y0015*
G37*
G36*
X00115D02*
X00113D01*
X00113Y0015*
X00112*
X00112Y0015*
X0011Y0015*
X00109Y0015*
X00107Y00149*
X00106Y00148*
X00104Y00147*
X00104*
X00104Y00147*
X00104Y00147*
X00103Y00146*
X00102Y00145*
X00102Y00144*
X00101Y00143*
X00101Y00141*
X00101Y0014*
Y0014*
Y00118*
Y00118*
X00107*
X00108Y00122*
X00109*
X00109Y00122*
X00109Y00122*
X00109Y00121*
X0011Y00121*
X00111Y0012*
X00111Y0012*
X00112Y00119*
X00113Y00119*
X00113Y00119*
X00113Y00118*
X00114Y00118*
X00114Y00118*
X00115Y00118*
X00116Y00118*
X00118Y00118*
X00119Y00118*
X0012*
X0012Y00118*
X00121Y00118*
X00122Y00118*
X00123Y00118*
X00124Y00119*
X00125Y00119*
X00126Y0012*
X00126Y0012*
X00127Y0012*
X00127Y00121*
X00127Y00122*
X00128Y00123*
X00128Y00124*
X00129Y00126*
X00129Y00127*
Y00128*
X00129Y00128*
X00129Y00129*
X00128Y0013*
X00128Y00131*
X00127Y00133*
X00127Y00134*
X00126Y00134*
X00125Y00135*
X00125*
X00125Y00135*
X00125Y00135*
X00125Y00135*
X00124Y00135*
X00124Y00136*
X00123Y00136*
X00123Y00136*
X00122Y00136*
X00121Y00137*
X0012Y00137*
X00119Y00137*
X00118Y00137*
X00117Y00137*
X00116Y00137*
X00115Y00138*
X00109Y00138*
Y00139*
Y00139*
Y00139*
X00109Y0014*
X00109Y0014*
X0011Y00141*
X0011Y00142*
X0011Y00142*
X00111Y00143*
X00111Y00143*
X00111Y00143*
X00111Y00143*
X00111Y00143*
X00112Y00144*
X00113Y00144*
X00113Y00144*
X00114Y00144*
X00115*
X00116Y00144*
X00116Y00144*
X00117Y00144*
X00119Y00143*
X00119*
X00119Y00143*
X0012Y00143*
X0012Y00143*
X00121Y00142*
X00121Y00142*
X00123Y00142*
X00126Y00147*
X00126Y00147*
X00125Y00148*
X00125Y00148*
X00124Y00148*
X00123Y00148*
X00123Y00149*
X00121Y00149*
X0012Y00149*
X0012*
X0012Y00149*
X0012Y0015*
X00119Y0015*
X00118Y0015*
X00117Y0015*
X00116Y0015*
X00115Y0015*
G37*
G36*
X00291Y00159D02*
X00279D01*
X00269Y00128*
X00269*
X00258Y00159*
X00247*
Y00118*
X00291*
Y00159*
G37*
G36*
X00191Y0015D02*
X0018D01*
X0019*
X0019Y0015*
X00189Y0015*
X00188Y0015*
X00186Y0015*
X00186*
X00185Y00149*
X00185Y00149*
X00184Y00149*
X00183Y00149*
X00182Y00149*
X00181Y00148*
X0018Y00148*
X00183Y00141*
X00183Y00142*
X00183Y00142*
X00184Y00142*
X00184Y00142*
X00185Y00142*
X00186Y00143*
X00187Y00143*
X00187*
X00188Y00143*
X00188Y00143*
X00189Y00144*
X00189Y00144*
X0019Y00144*
X00191Y00144*
X00192*
X00193Y00144*
X00193Y00144*
X00194Y00143*
X00195Y00143*
X00195Y00142*
X00195Y00142*
X00195Y00142*
Y00142*
X00195Y00141*
X00195Y00141*
X00195Y0014*
X00195Y0014*
X00194Y0014*
X00194Y0014*
X00194Y0014*
X00193Y00139*
X00193Y00139*
X00193*
X00193Y00139*
X00192Y00139*
X00192Y00139*
X00191Y00138*
X0019Y00138*
X0019Y00138*
X00189Y00137*
X00188Y00137*
X00188Y00137*
X00188Y00137*
X00187Y00137*
X00186Y00136*
X00185Y00136*
X00184Y00135*
X00184Y00135*
X00184Y00135*
X00183Y00134*
X00183Y00134*
X00182Y00134*
X00182Y00133*
X00181Y00133*
X00181Y00132*
X00181Y00132*
X00181Y00132*
X00181Y00131*
X0018Y00131*
X0018Y0013*
X0018Y00129*
X0018Y00128*
X0018Y00127*
Y00127*
Y00127*
Y00127*
X0018Y00127*
X0018Y00126*
X0018Y00125*
X00181Y00123*
X00181Y00122*
X00182Y00121*
X00183Y00121*
X00183Y0012*
X00183*
X00183Y0012*
X00184Y0012*
X00184Y0012*
X00184Y00119*
X00185Y00119*
X00185Y00119*
X00186Y00119*
X00186Y00119*
X00187Y00118*
X00188Y00118*
X00189Y00118*
X0019Y00118*
X00191Y00118*
X00192Y00118*
X00194*
X00195Y00118*
X00196*
X00197Y00118*
X00198Y00118*
X00199Y00118*
X00199*
X00199Y00118*
X002Y00118*
X002Y00118*
X00201Y00118*
X00202Y00119*
X00204Y00119*
Y00126*
X00204Y00126*
X00203Y00126*
X00203Y00126*
X00202Y00126*
X00201Y00125*
X002Y00125*
X00199Y00125*
X00198Y00124*
X00198*
X00198Y00124*
X00197Y00124*
X00196Y00124*
X00196Y00124*
X00195Y00124*
X00193Y00124*
X00193*
X00192Y00124*
X00192*
X0019Y00124*
X0019Y00124*
X00189Y00124*
X00189Y00125*
X00189Y00125*
X00189Y00125*
X00188Y00126*
X00188Y00126*
X00188Y00126*
Y00127*
Y00127*
X00188Y00127*
X00188Y00127*
X00189Y00128*
X00189Y00128*
X00189Y00128*
X00189Y00129*
X0019Y00129*
X0019Y00129*
X00191Y00129*
X00191Y00129*
X00191Y0013*
X00191Y0013*
X00192Y0013*
X00192Y0013*
X00193Y00131*
X00194Y00131*
X00195Y00131*
X00195Y00131*
X00196Y00132*
X00196Y00132*
X00197Y00132*
X00198Y00133*
X00199Y00133*
X00199Y00134*
X002Y00134*
X002Y00134*
X002Y00134*
X00201Y00134*
X00201Y00135*
X00202Y00135*
X00202Y00136*
X00202Y00136*
X00203Y00137*
X00203Y00137*
X00203Y00137*
X00203Y00138*
X00203Y00138*
X00203Y00139*
X00204Y0014*
X00204Y0014*
X00204Y00141*
Y00142*
Y00142*
X00204Y00142*
X00204Y00143*
X00203Y00144*
X00203Y00145*
X00202Y00146*
X00201Y00147*
X00201Y00148*
X002Y00148*
X002*
X002Y00148*
X002Y00148*
X002Y00148*
X00199Y00148*
X00199Y00149*
X00198Y00149*
X00197Y00149*
X00195Y0015*
X00193Y0015*
X00191Y0015*
G37*
G36*
X00144Y0015D02*
X00136D01*
Y00118*
X00145*
X00144*
Y0015*
G37*
G36*
X00092Y0015D02*
X00063D01*
X00073*
X00073Y0015*
X00073*
X00072Y0015*
X00071Y0015*
X0007Y00149*
X00068Y00149*
X00067Y00148*
X00066Y00147*
X00066Y00147*
X00065Y00147*
X00065Y00146*
X00064Y00145*
X00064Y00144*
X00063Y00143*
X00063Y00143*
X00063Y00142*
X00063Y00141*
X00063Y0014*
Y00118*
X00071*
Y00136*
Y00137*
Y00137*
Y00137*
X00071Y00138*
X00071Y00138*
X00072Y00139*
X00072Y0014*
X00072Y00141*
X00073Y00142*
X00073Y00142*
X00073Y00142*
X00073Y00142*
X00074Y00142*
X00074Y00143*
X00075Y00143*
X00075Y00143*
X00076Y00143*
X00077*
X00077Y00143*
X00078Y00143*
X00079Y00143*
X00079Y00143*
X0008Y00142*
X00081Y00141*
X00082Y00141*
X00082Y0014*
X00082Y0014*
X00082Y00139*
X00082Y00139*
X00083Y00138*
X00083Y00136*
X00083Y00135*
X00083Y00133*
Y00118*
X00092*
Y0015*
X00085*
X00084Y00146*
X00084*
X00084Y00146*
X00083Y00146*
X00083Y00146*
X00083Y00147*
X00082Y00147*
X00081Y00148*
X0008Y00149*
X00079Y00149*
X00079Y00149*
X00079Y00149*
X00078Y00149*
X00078Y0015*
X00077Y0015*
X00076Y0015*
X00075Y0015*
X00074Y0015*
X00092*
G37*
G36*
X00163D02*
X00151D01*
X00162*
X00161Y0015*
X0016Y0015*
X00159Y0015*
X00157Y0015*
X00157*
X00157Y00149*
X00156Y00149*
X00155Y00149*
X00154Y00149*
X00153Y00149*
X00152Y00148*
X00151Y00148*
X00154Y00141*
X00154Y00142*
X00154Y00142*
X00155Y00142*
X00156Y00142*
X00156Y00142*
X00157Y00143*
X00159Y00143*
X00159*
X00159Y00143*
X00159Y00143*
X0016Y00144*
X0016Y00144*
X00161Y00144*
X00163Y00144*
X00163*
X00164Y00144*
X00165Y00144*
X00165Y00143*
X00166Y00143*
X00166Y00142*
X00166Y00142*
X00166Y00142*
Y00142*
X00166Y00141*
X00166Y00141*
X00166Y0014*
X00166Y0014*
X00166Y0014*
X00165Y0014*
X00165Y0014*
X00165Y00139*
X00164Y00139*
X00164*
X00164Y00139*
X00164Y00139*
X00163Y00139*
X00162Y00138*
X00162Y00138*
X00161Y00138*
X0016Y00137*
X0016Y00137*
X00159Y00137*
X00159Y00137*
X00158Y00137*
X00158Y00136*
X00157Y00136*
X00155Y00135*
X00155Y00135*
X00155Y00135*
X00155Y00134*
X00154Y00134*
X00154Y00134*
X00153Y00133*
X00153Y00133*
X00152Y00132*
X00152Y00132*
X00152Y00132*
X00152Y00131*
X00152Y00131*
X00152Y0013*
X00151Y00129*
X00151Y00128*
X00151Y00127*
Y00127*
X00151Y00127*
X00151Y00126*
X00152Y00125*
X00152Y00123*
X00153Y00122*
X00153Y00121*
X00154Y00121*
X00155Y0012*
X00155*
X00155Y0012*
X00155Y0012*
X00155Y0012*
X00155Y00119*
X00156Y00119*
X00156Y00119*
X00157Y00119*
X00158Y00119*
X00158Y00118*
X00159Y00118*
X0016Y00118*
X00161Y00118*
X00162Y00118*
X00163Y00118*
X00166*
X00167Y00118*
X00167*
X00168Y00118*
X00169Y00118*
X0017Y00118*
X0017*
X00171Y00118*
X00171Y00118*
X00172Y00118*
X00172Y00118*
X00173Y00119*
X00175Y00119*
Y00126*
X00175Y00126*
X00175Y00126*
X00174Y00126*
X00173Y00126*
X00173Y00125*
X00172Y00125*
X00171Y00125*
X0017Y00124*
X00169*
X00169Y00124*
X00168Y00124*
X00168Y00124*
X00167Y00124*
X00166Y00124*
X00164Y00124*
X00164*
X00163Y00124*
X00163*
X00162Y00124*
X00161Y00124*
X00161Y00124*
X00161Y00125*
X00161Y00125*
X0016Y00125*
X0016Y00126*
X0016Y00126*
X0016Y00126*
Y00127*
Y00127*
X0016Y00127*
X0016Y00127*
X0016Y00128*
X0016Y00128*
X0016Y00128*
X00161Y00129*
X00161Y00129*
X00161Y00129*
X00162Y00129*
X00162Y00129*
X00162Y0013*
X00163Y0013*
X00163Y0013*
X00164Y0013*
X00164Y00131*
X00165Y00131*
X00166Y00131*
X00167Y00131*
X00167Y00132*
X00167Y00132*
X00168Y00132*
X00169Y00133*
X0017Y00133*
X00171Y00134*
X00171Y00134*
X00171Y00134*
X00172Y00134*
X00172Y00134*
X00172Y00135*
X00173Y00135*
X00173Y00136*
X00174Y00136*
X00174Y00137*
X00174Y00137*
X00174Y00137*
X00174Y00138*
X00175Y00138*
X00175Y00139*
X00175Y0014*
X00175Y0014*
X00175Y00141*
Y00118*
Y00142*
X00175Y00142*
X00175Y00143*
X00175Y00144*
X00174Y00145*
X00174Y00146*
X00173Y00147*
X00172Y00148*
X00172Y00148*
X00172*
X00171Y00148*
X00171Y00148*
X00171Y00148*
X00171Y00148*
X0017Y00149*
X00169Y00149*
X00168Y00149*
X00166Y0015*
X00165Y0015*
X00163Y0015*
G37*
G36*
X00201Y00106D02*
Y00096D01*
X00196Y00099*
X00194Y00106*
X00189*
Y00099*
X0018*
Y00093*
X00189*
Y00077*
Y00077*
Y00077*
X00188Y00077*
X00188Y00076*
X00188Y00075*
X00188Y00075*
X00187Y00075*
X00187*
X00187Y00074*
X00187Y00074*
X00187Y00074*
X00186Y00074*
X00186Y00074*
X00185Y00074*
X00185Y00074*
X00184*
X00183Y00074*
X00182Y00074*
X00182*
X00182Y00074*
X00181Y00074*
X00181Y00074*
X0018Y00074*
X00179Y00075*
Y00106*
Y00067*
X00201*
Y00106*
G37*
G36*
X00071Y001D02*
X0006D01*
Y00096*
Y001*
X0007*
X0007Y00099*
X00069Y00099*
X00068Y00099*
X00066Y00099*
X00066*
X00065Y00099*
X00065Y00099*
X00064Y00099*
X00063Y00098*
X00062Y00098*
X00061Y00098*
X0006Y00097*
X00063Y00091*
X00063Y00091*
X00063Y00091*
X00064Y00091*
X00064Y00091*
X00065Y00092*
X00066Y00092*
X00067Y00093*
X00067*
X00068Y00093*
X00068Y00093*
X00069Y00093*
X00069Y00093*
X0007Y00093*
X00072Y00093*
X00072*
X00073Y00093*
X00073Y00093*
X00074Y00093*
X00075Y00092*
X00075Y00092*
X00075Y00092*
X00075Y00091*
Y00091*
X00075Y00091*
X00075Y0009*
X00075Y0009*
X00075Y0009*
X00074Y00089*
X00074Y00089*
X00074Y00089*
X00073Y00089*
X00073Y00088*
X00073*
X00073Y00088*
X00072Y00088*
X00072Y00088*
X00071Y00088*
X00071Y00087*
X0007Y00087*
X00069Y00087*
X00069Y00087*
X00068Y00086*
X00068Y00086*
X00067Y00086*
X00066Y00086*
X00066Y00085*
X00064Y00084*
X00064Y00084*
X00064Y00084*
X00063Y00084*
X00063Y00083*
X00062Y00083*
X00062Y00083*
X00062Y00082*
X00061Y00081*
X00061Y00081*
X00061Y00081*
X00061Y00081*
X00061Y0008*
X0006Y00079*
X0006Y00079*
X0006Y00078*
X0006Y00077*
Y00077*
Y00067*
Y00076*
X0006Y00076*
X0006Y00075*
X0006Y00074*
X00061Y00073*
X00061Y00072*
X00062Y0007*
X00063Y0007*
X00063Y00069*
X00063*
X00063Y00069*
X00064Y00069*
X00064Y00069*
X00064Y00069*
X00065Y00069*
X00065Y00068*
X00066Y00068*
X00067Y00068*
X00067Y00068*
X00068Y00068*
X00069Y00067*
X0007Y00067*
X00071Y00067*
X00072Y00067*
X0006*
X00075*
X00084*
X00075*
X00075Y00067*
X00076*
X00077Y00067*
X00078Y00067*
X00079Y00067*
X00079*
X0008Y00067*
X0008Y00067*
X00081Y00068*
X00081Y00068*
X00082Y00068*
X00084Y00069*
Y00076*
X00084Y00076*
X00083Y00076*
X00083Y00075*
X00082Y00075*
X00081Y00075*
X0008Y00075*
X00079Y00074*
X00078Y00074*
X00078*
X00078Y00074*
X00077Y00074*
X00077Y00074*
X00076Y00073*
X00075Y00073*
X00073Y00073*
X00073*
X00072Y00073*
X00072*
X00071Y00073*
X0007Y00074*
X0007Y00074*
X00069Y00074*
X00069Y00074*
X00069Y00074*
X00069Y00075*
X00069Y00075*
X00068Y00076*
Y00076*
Y00076*
X00069Y00076*
X00069Y00077*
X00069Y00077*
X00069Y00077*
X00069Y00078*
X0007Y00078*
X0007Y00078*
X0007Y00078*
X00071Y00079*
X00071Y00079*
X00071Y00079*
X00071Y00079*
X00072Y00079*
X00073Y0008*
X00073Y0008*
X00074Y0008*
X00075Y00081*
X00075Y00081*
X00076Y00081*
X00076Y00081*
X00077Y00082*
X00078Y00082*
X00079Y00082*
X00079Y00083*
X0008Y00083*
X0008Y00083*
X0008Y00084*
X00081Y00084*
X00081Y00084*
X00082Y00085*
X00082Y00085*
X00083Y00086*
X00083Y00086*
X00083Y00086*
X00083Y00087*
X00083Y00087*
X00083Y00088*
X00084Y00088*
X00084Y00089*
X00084Y0009*
X00084Y00091*
Y00091*
X00084Y00092*
X00084Y00092*
X00083Y00093*
X00083Y00094*
X00082Y00095*
X00082Y00096*
X00081Y00097*
X0008Y00097*
X0008*
X0008Y00097*
X0008Y00098*
X0008Y00098*
X0008Y00098*
X00079Y00098*
X00078Y00098*
X00077Y00099*
X00075Y00099*
X00073Y00099*
X00071Y001*
G37*
G36*
X00264Y00099D02*
X00254D01*
X00255*
X00249Y00081*
Y00081*
X00249Y00081*
X00249Y00081*
X00249Y0008*
X00248Y0008*
X00248Y00079*
Y00078*
X00248Y00078*
Y00078*
X00248Y00078*
X00248Y00077*
X00248Y00076*
X00248*
Y00076*
Y00076*
X00247Y00076*
X00247Y00077*
X00247Y00078*
X00247Y00079*
Y00079*
X00247Y00079*
X00247Y00079*
X00247Y00079*
X00247Y0008*
X00246Y00081*
X0024Y00099*
X00231*
X00245Y00063*
Y00063*
X00245Y00063*
X00245Y00063*
X00245Y00063*
X00245Y00062*
X00246Y00061*
X00247Y0006*
X00248Y00058*
X00249Y00057*
X0025Y00056*
X0025*
X0025Y00056*
X0025Y00056*
X00251Y00055*
X00252Y00055*
X00253Y00054*
X00255Y00054*
X00256Y00054*
X00258Y00054*
X00264*
X00259*
X0026Y00054*
X0026Y00054*
X0026*
X00261Y00054*
X00262Y00054*
X00262Y00054*
Y00061*
X00262*
X00262Y00061*
X00261Y00061*
X00261Y00061*
X00261*
X0026Y00061*
X0026Y00061*
X00258*
X00258Y00061*
X00257Y00061*
X00257Y00061*
X00256Y00061*
X00255Y00062*
X00254Y00062*
X00254Y00062*
X00254Y00062*
X00254Y00063*
X00254Y00063*
X00253Y00064*
X00253Y00065*
X00253Y00065*
X00252Y00066*
X00252Y00068*
X00264Y00099*
G37*
G36*
X00293Y00109D02*
Y00077D01*
X00293Y00077*
X00293Y00077*
X00292Y00077*
X00292Y00077*
X00291Y00076*
X0029Y00076*
X00288Y00076*
X00287Y00075*
X00287*
X00287Y00075*
X00287Y00075*
X00286Y00075*
X00285Y00075*
X00284Y00074*
X00283Y00074*
X00282Y00074*
X00281Y00074*
X0028*
X0028Y00074*
X00279Y00074*
X00278Y00074*
X00278Y00075*
X00277Y00075*
X00276Y00075*
X00276Y00075*
X00276Y00076*
X00276Y00076*
X00276Y00076*
X00275Y00077*
X00275Y00077*
X00275Y00078*
X00275Y00078*
Y00079*
Y00079*
X00275Y00079*
X00275Y00079*
X00275Y0008*
X00275Y0008*
X00276Y00081*
X00276Y00081*
X00276Y00081*
X00276Y00081*
X00277Y00082*
X00277Y00082*
X00277Y00082*
X00278Y00082*
X00278Y00083*
X00279Y00083*
X00279Y00083*
X00279Y00083*
X0028Y00084*
X0028Y00084*
X00281Y00084*
X00281Y00084*
X00282Y00085*
X00283Y00085*
X00283*
X00283Y00085*
X00284Y00086*
X00284Y00086*
X00284Y00086*
X00285Y00086*
X00286Y00087*
X00286Y00087*
X00286Y00087*
X00287Y00087*
X00287Y00087*
X00288Y00088*
X00289Y00089*
X00289Y00089*
X0029Y00089*
X0029Y0009*
X0029Y0009*
X00291Y00091*
X00291Y00091*
X00292Y00092*
X00292Y00093*
X00292Y00093*
X00292Y00093*
X00292Y00093*
X00292Y00094*
X00293Y00095*
X00293Y00096*
X00293Y00097*
X00293Y00098*
Y00098*
Y00098*
Y00098*
X00293Y00099*
X00293Y00099*
X00293Y00099*
X00292Y00101*
X00292Y00102*
X00291Y00104*
X00291Y00104*
X0029Y00105*
X0029Y00106*
X00289Y00106*
X00289Y00106*
X00289Y00106*
X00289Y00106*
X00288Y00107*
X00288Y00107*
X00288Y00107*
X00287Y00107*
X00286Y00108*
X00286Y00108*
X00285Y00108*
X00283Y00109*
X00281Y00109*
X0028Y00109*
X00278*
X00278Y00109*
X00277*
X00276Y00109*
X00275Y00109*
X00274Y00109*
X00273Y00108*
X00273*
X00272Y00108*
X00272Y00108*
X00271Y00108*
X0027Y00108*
X00269Y00107*
X00268Y00107*
X00267Y00106*
X0027Y001*
X0027Y001*
X0027Y001*
X00271Y001*
X00271Y001*
X00272Y001*
X00273Y00101*
X00275Y00101*
X00275*
X00275Y00101*
X00275Y00102*
X00276Y00102*
X00277Y00102*
X00277Y00102*
X00279Y00102*
X0028*
X0028Y00102*
X00281Y00102*
X00281Y00102*
X00282Y00101*
X00282Y00101*
X00283Y00101*
X00283Y00101*
X00283Y00101*
X00283Y001*
X00284Y001*
X00284Y001*
X00284Y00099*
X00284Y00099*
X00284Y00098*
Y00098*
Y00097*
X00284Y00097*
X00284Y00097*
X00284Y00096*
X00284Y00095*
X00283Y00095*
X00282Y00094*
X00282Y00094*
X00282Y00094*
X00282Y00094*
X00281Y00093*
X0028Y00093*
X00279Y00093*
X00278Y00092*
X00277Y00091*
X00276*
X00276Y00091*
X00276Y00091*
X00275Y00091*
X00275Y0009*
X00274Y0009*
X00273Y00089*
X00272Y00089*
X00271Y00088*
X00271Y00088*
X00271Y00088*
X0027Y00087*
X0027Y00087*
X00269Y00086*
X00269Y00086*
X00268Y00085*
X00268Y00084*
X00268Y00084*
X00267Y00084*
X00267Y00083*
X00267Y00083*
X00267Y00082*
X00267Y00081*
X00267Y0008*
X00266Y00079*
Y00079*
Y00078*
X00267Y00078*
X00267Y00078*
X00267Y00077*
X00267Y00076*
X00267Y00074*
X00268Y00073*
X00269Y00072*
X00269Y00071*
X0027Y00071*
X0027Y0007*
X00271*
X00271Y0007*
X00271Y0007*
X00271Y0007*
X00272Y00069*
X00272Y00069*
X00273Y00069*
X00273Y00069*
X00274Y00068*
X00275Y00068*
X00276Y00068*
X00277Y00067*
X00278Y00067*
X00279Y00067*
X0028Y00067*
X00282Y00067*
X00266*
X00293*
X00282*
X00283Y00067*
X00283*
X00284Y00067*
X00285Y00067*
X00286Y00067*
X00287Y00068*
X00289Y00068*
X00291Y00069*
X00293Y00069*
Y00109*
G37*
G36*
X0016Y001D02*
X00146D01*
Y00067*
Y00081*
X00166*
Y00081*
Y00081*
X00166Y00081*
X00166Y0008*
X00166Y00079*
X00166Y00078*
X00165Y00077*
X00165Y00076*
X00164Y00075*
X00164Y00075*
X00164Y00075*
X00163Y00075*
X00162Y00074*
X00162Y00074*
X00161Y00074*
X0016Y00073*
X00158Y00073*
X00157*
X00156Y00073*
X00156Y00073*
X00155Y00074*
X00153Y00074*
X00153*
X00152Y00074*
X00152Y00074*
X00151Y00074*
X0015Y00075*
X0015Y00075*
X00148Y00076*
Y00069*
X00148Y00069*
X00148Y00069*
X00148Y00069*
X00149Y00068*
X0015Y00068*
X00151Y00068*
X00153Y00067*
X00153*
X00153Y00067*
X00154Y00067*
X00154Y00067*
X00155Y00067*
X00156Y00067*
X00157Y00067*
X00146*
X00175*
X0016*
X0016Y00067*
X0016*
X00162Y00067*
X00163Y00067*
X00164Y00068*
X00166Y00068*
X00167Y00069*
X00167*
X00167Y00069*
X00168Y00069*
X00168Y00069*
X00169Y0007*
X0017Y00071*
X00171Y00072*
X00172Y00073*
X00173Y00074*
Y00074*
X00173Y00074*
X00173Y00074*
X00173Y00075*
X00173Y00075*
X00173Y00075*
X00174Y00076*
X00174Y00078*
X00175Y00079*
X00175Y00081*
X00175Y00083*
Y00084*
X00175Y00084*
Y00085*
X00175Y00086*
X00174Y00088*
X00174Y00089*
X00174Y00091*
X00173Y00092*
Y00092*
X00173Y00092*
X00173Y00093*
X00172Y00093*
X00172Y00094*
X00171Y00095*
X0017Y00096*
X00169Y00097*
X00168Y00098*
X00168*
X00168Y00098*
X00167Y00098*
X00166Y00098*
X00165Y00099*
X00164Y00099*
X00163Y00099*
X00162Y00099*
X0016Y001*
G37*
G36*
X00139D02*
X00091D01*
Y00067*
X00107*
X00099*
Y00086*
Y00086*
Y00086*
Y00086*
X001Y00087*
X001Y00087*
X001Y00088*
X001Y00089*
X00101Y0009*
X00101Y00091*
X00101Y00092*
X00102Y00092*
X00103Y00092*
X00103Y00093*
X00104Y00093*
X00105*
X00105Y00093*
X00106Y00092*
X00107Y00092*
X00108Y00092*
X00108Y00091*
X00109Y0009*
X00109Y0009*
X00109Y0009*
X00109Y00089*
X0011Y00088*
X0011Y00087*
X0011Y00086*
X0011Y00085*
X00111Y00083*
Y00067*
X00122*
X00119*
Y00086*
Y00086*
Y00086*
Y00086*
X00119Y00087*
X00119Y00087*
X00119Y00088*
X0012Y00089*
X0012Y0009*
X00121Y00091*
X00121Y00092*
X00122Y00092*
X00122Y00092*
X00123Y00093*
X00124Y00093*
X00124*
X00124Y00093*
X00125Y00093*
X00126Y00092*
X00127Y00092*
X00127Y00092*
X00128Y00091*
X00129Y0009*
X00129Y0009*
X00129Y00089*
X00129Y00089*
X00129Y00088*
X0013Y00087*
X0013Y00086*
X0013Y00084*
X0013Y00082*
Y00067*
X00139*
Y00099*
X00132*
X00131Y00095*
X00131*
X0013Y00095*
X0013Y00095*
X0013Y00096*
X0013Y00096*
X00129Y00097*
X00128Y00097*
X00127Y00098*
X00127Y00098*
X00126Y00099*
X00126Y00099*
X00126Y00099*
X00125Y00099*
X00124Y00099*
X00123Y00099*
X00122Y00099*
X00121Y001*
X00139*
G37*
G36*
X00216D02*
X00215D01*
X00214Y00099*
X00214Y00099*
X00213Y00099*
X00211Y00099*
X0021*
X0021Y00099*
X0021Y00099*
X00209Y00099*
X00208Y00098*
X00207Y00098*
X00206Y00098*
X00205Y00097*
X00208Y00091*
X00208Y00091*
X00208Y00091*
X00209Y00091*
X00209Y00091*
X0021Y00092*
X00211Y00092*
X00212Y00093*
X00212*
X00213Y00093*
X00213Y00093*
X00213Y00093*
X00214Y00093*
X00215Y00093*
X00216Y00093*
X00217*
X00217Y00093*
X00218Y00093*
X00219Y00093*
X00219Y00092*
X0022Y00092*
X0022Y00092*
X0022Y00091*
Y00091*
X0022Y00091*
X0022Y0009*
X0022Y0009*
X0022Y0009*
X00219Y00089*
X00219Y00089*
X00219Y00089*
X00218Y00089*
X00218Y00088*
X00218*
X00217Y00088*
X00217Y00088*
X00217Y00088*
X00216Y00088*
X00215Y00087*
X00214Y00087*
X00214Y00087*
X00213Y00087*
X00213Y00086*
X00213Y00086*
X00212Y00086*
X00211Y00086*
X0021Y00085*
X00209Y00084*
X00209Y00084*
X00209Y00084*
X00208Y00084*
X00208Y00083*
X00207Y00083*
X00207Y00083*
X00206Y00082*
X00206Y00081*
X00206Y00081*
X00206Y00081*
X00206Y00081*
X00205Y0008*
X00205Y00079*
X00205Y00079*
X00205Y00078*
X00205Y00077*
Y00076*
X00205Y00076*
X00205Y00075*
X00205Y00074*
X00206Y00073*
X00206Y00072*
X00207Y0007*
X00208Y0007*
X00208Y00069*
X00208*
X00208Y00069*
X00208Y00069*
X00209Y00069*
X00209Y00069*
X0021Y00069*
X0021Y00068*
X00211Y00068*
X00211Y00068*
X00212Y00068*
X00213Y00068*
X00214Y00067*
X00215Y00067*
X00216Y00067*
X00217Y00067*
X00205*
X00229*
Y00091*
X00229Y00092*
X00228Y00092*
X00228Y00093*
X00228Y00094*
X00227Y00095*
X00226Y00096*
X00226Y00097*
X00225Y00097*
X00225*
X00225Y00097*
X00225Y00098*
X00225Y00098*
X00224Y00098*
X00224Y00098*
X00223Y00098*
X00222Y00099*
X0022Y00099*
X00218Y00099*
X00216Y001*
G37*
%LNcsgb-5*%
%LPD*%
G36*
X00223Y00133D02*
X00223D01*
X00223Y00132*
X00224Y00132*
X00225Y00132*
X00226Y00132*
X00227Y00132*
X00228Y00131*
X00228Y00131*
X00229Y00131*
X00229Y00131*
X00229Y0013*
X00229Y0013*
X0023Y0013*
X0023Y00129*
X0023Y00128*
X0023Y00127*
Y00127*
Y00127*
X0023Y00127*
X0023Y00126*
X0023Y00126*
X0023Y00125*
X00229Y00125*
X00229Y00125*
X00229*
X00229Y00124*
X00228Y00124*
X00228Y00124*
X00228Y00124*
X00227Y00124*
X00227Y00124*
X00226Y00124*
X00225*
X00225Y00124*
X00224Y00124*
X00224Y00124*
X00223Y00124*
X00222Y00125*
X00221Y00125*
X00221Y00125*
X00221Y00126*
X00221Y00126*
X0022Y00127*
X0022Y00127*
X0022Y00128*
X00219Y00129*
X00219Y0013*
Y00133*
X00223Y00133*
G37*
G36*
X00113D02*
X00113D01*
X00113Y00132*
X00114Y00132*
X00115Y00132*
X00116Y00132*
X00117Y00132*
X00118Y00131*
X00118Y00131*
X00118Y00131*
X00119Y00131*
X00119Y0013*
X00119Y0013*
X0012Y0013*
X0012Y00129*
X0012Y00128*
X0012Y00127*
Y00127*
Y00127*
X0012Y00127*
X0012Y00126*
X0012Y00126*
X0012Y00125*
X00119Y00125*
X00119Y00125*
X00119*
X00119Y00124*
X00118Y00124*
X00118Y00124*
X00118Y00124*
X00117Y00124*
X00117Y00124*
X00116Y00124*
X00115*
X00115Y00124*
X00114Y00124*
X00114Y00124*
X00113Y00124*
X00112Y00125*
X00111Y00125*
X00111Y00125*
X00111Y00126*
X00111Y00126*
X0011Y00127*
X0011Y00127*
X0011Y00128*
X00109Y00129*
X00109Y0013*
Y00133*
X00113Y00133*
G37*
G36*
X00283Y0015D02*
Y0015D01*
Y0015*
X00283Y0015*
Y00149*
Y00148*
X00283Y00148*
Y00147*
Y00147*
Y00146*
X00283Y00146*
Y00145*
X00283Y00145*
Y00144*
X00283Y00143*
Y00142*
Y00142*
Y00141*
X00283Y00141*
Y0014*
Y0014*
X00283Y00139*
Y00137*
Y00118*
X00273*
X00283Y0015*
X00283*
Y0015*
G37*
G36*
X00265Y00118D02*
X00255D01*
Y00138*
Y00138*
Y00138*
Y00138*
Y00139*
Y0014*
Y0014*
X00255Y00141*
Y00142*
Y00142*
Y00142*
X00255Y00143*
Y00144*
X00254Y00144*
Y00145*
X00254Y00147*
Y00147*
Y00147*
Y00148*
X00254Y00148*
Y00149*
X00254Y0015*
Y0015*
X00254*
X00265Y00118*
G37*
G36*
X00201Y00067D02*
X00188D01*
X00188Y00067*
X00189Y00067*
X0019Y00067*
X00191Y00067*
X00191Y00068*
X00192Y00068*
X00192Y00068*
X00193Y00068*
X00193Y00068*
X00194Y00069*
X00194Y00069*
X00195Y00069*
X00195Y0007*
X00196Y00071*
X00196Y00071*
X00196Y00071*
X00196Y00072*
X00196Y00073*
X00197Y00074*
X00197Y00075*
X00197Y00076*
X00197Y00077*
Y00093*
X00201*
Y00067*
G37*
G36*
X0018Y00068D02*
X0018Y00068D01*
X0018Y00068*
X00181Y00068*
X00181Y00068*
X00182Y00067*
X00183Y00067*
X00183*
X00183Y00067*
X00184Y00067*
X00184*
X00185Y00067*
X00186Y00067*
X00186Y00067*
X00179*
Y00068*
X00179*
X0018Y00068*
G37*
G36*
X00161Y00093D02*
X00161Y00093D01*
X00162Y00093*
X00163Y00093*
X00163Y00092*
X00164Y00092*
X00164Y00092*
X00164Y00092*
X00165Y00091*
X00165Y00091*
X00165Y0009*
X00166Y00089*
X00166Y00088*
X00166Y00087*
X00154*
Y00087*
Y00087*
X00154Y00088*
X00154Y00088*
X00154Y00089*
X00155Y0009*
X00155Y00091*
X00155Y00092*
X00155Y00092*
X00156Y00092*
X00156Y00092*
X00157Y00092*
X00157Y00093*
X00158Y00093*
X00159Y00093*
X0016Y00093*
X0016*
X00161Y00093*
G37*
G36*
X00159Y00099D02*
X00158Y00099D01*
X00158Y00099*
X00156Y00099*
X00155Y00099*
X00153Y00098*
X00152Y00098*
X00151Y00097*
X0015Y00096*
X0015Y00096*
X0015Y00096*
X0015Y00096*
X00149Y00095*
X00149Y00095*
X00149Y00095*
X00148Y00094*
X00148Y00094*
X00148Y00093*
X00147Y00092*
X00147Y00092*
X00147Y00091*
X00146Y0009*
X00146Y00089*
X00146Y00088*
X00146Y00086*
X00146Y00085*
Y001*
X00159*
X00159Y00099*
G37*
G36*
X0012D02*
X00119Y00099D01*
X00118Y00099*
X00117Y00099*
X00116Y00099*
X00116Y00098*
X00115Y00098*
X00115Y00098*
X00115Y00098*
X00114Y00098*
X00114Y00097*
X00113Y00096*
X00112Y00096*
X00112Y00095*
X00111*
X00111Y00095*
X00111Y00095*
X0011Y00096*
X0011Y00096*
X00109Y00097*
X00109Y00097*
X00108Y00098*
X00107Y00098*
X00107Y00099*
X00107Y00099*
X00106Y00099*
X00105Y00099*
X00105Y00099*
X00104Y00099*
X00103Y00099*
X00102Y001*
X00121*
X0012Y00099*
G37*
G36*
X00101D02*
X001D01*
X001Y00099*
X00099Y00099*
X00097Y00099*
X00096Y00098*
X00095Y00098*
X00094Y00097*
X00093Y00097*
X00093Y00096*
X00093Y00096*
X00092Y00095*
X00092Y00093*
X00091Y00093*
X00091Y00092*
X00091Y00091*
X00091Y0009*
X00091Y00089*
Y001*
X00101*
X00101Y00099*
G37*
G36*
X00229Y00067D02*
X00219D01*
X0022Y00067*
X00221*
X00222Y00067*
X00223Y00067*
X00224Y00067*
X00224*
X00224Y00067*
X00225Y00067*
X00225Y00068*
X00226Y00068*
X00227Y00068*
X00229Y00069*
Y00076*
X00228Y00076*
X00228Y00076*
X00228Y00075*
X00227Y00075*
X00226Y00075*
X00225Y00075*
X00224Y00074*
X00223Y00074*
X00223*
X00223Y00074*
X00222Y00074*
X00221Y00074*
X00221Y00073*
X0022Y00073*
X00218Y00073*
X00217*
X00217Y00073*
X00217*
X00215Y00073*
X00215Y00074*
X00214Y00074*
X00214Y00074*
X00214Y00074*
X00214Y00074*
X00213Y00075*
X00213Y00075*
X00213Y00076*
Y00076*
Y00076*
X00213Y00076*
X00213Y00077*
X00214Y00077*
X00214Y00077*
X00214Y00078*
X00214Y00078*
X00215Y00078*
X00215Y00078*
X00216Y00079*
X00216Y00079*
X00216Y00079*
X00216Y00079*
X00217Y00079*
X00217Y0008*
X00218Y0008*
X00219Y0008*
X0022Y00081*
X0022Y00081*
X00221Y00081*
X00221Y00081*
X00222Y00082*
X00223Y00082*
X00223Y00082*
X00224Y00083*
X00225Y00083*
X00225Y00083*
X00225Y00084*
X00226Y00084*
X00226Y00084*
X00226Y00085*
X00227Y00085*
X00227Y00086*
X00228Y00086*
X00228Y00086*
X00228Y00087*
X00228Y00087*
X00228Y00088*
X00228Y00088*
X00229Y00089*
X00229Y0009*
X00229Y00091*
Y00067*
G37*
G54D27*
X00984Y00757D03*
X00944D03*
X01023D03*
X01062D03*
X00974Y0098D03*
X00935D03*
X01013D03*
X01053D03*
X00078Y00974D03*
X00039D03*
X00118D03*
X00157D03*
Y00757D03*
X00118D03*
X00039D03*
X00078D03*
X00724Y01112D03*
X00718Y01082D03*
X00767Y01009D03*
X00797Y01003D03*
Y01161D03*
X00767Y01155D03*
X00852Y01027D03*
X00869Y01112D03*
X00875Y01082D03*
X00724Y01052D03*
X00869D03*
X00852Y01138D03*
X00741Y01027D03*
X00827Y01009D03*
Y01155D03*
X00741Y01138D03*
X00728Y00354D03*
Y00255D03*
X00019Y00954D03*
Y00777D03*
Y01161D03*
Y00728D03*
Y00098D03*
Y00255D03*
Y00177D03*
Y00413D03*
Y00334D03*
Y0057D03*
Y00492D03*
Y00649D03*
Y01003D03*
Y01082D03*
Y00019D03*
X00059Y00954D03*
Y00777D03*
X01082Y01082D03*
Y01003D03*
Y00649D03*
Y00492D03*
Y0057D03*
Y00334D03*
Y00413D03*
Y00177D03*
Y00255D03*
Y00098D03*
Y00728D03*
Y00019D03*
X00669Y01161D03*
X00433D03*
X00511D03*
X0059D03*
X00232Y01052D03*
Y01112D03*
X00274Y01009D03*
X0036Y01027D03*
X00377Y01052D03*
Y01112D03*
X0036Y01138D03*
X00226Y01082D03*
X00305Y01003D03*
Y01161D03*
X00274Y01155D03*
X00383Y01082D03*
X00335Y01009D03*
X00249Y01027D03*
Y01138D03*
X00335Y01155D03*
X00807Y00255D03*
Y00354D03*
X0059D03*
Y00196D03*
X00433Y00354D03*
Y00196D03*
X00354Y00354D03*
Y00196D03*
X00206D03*
Y00354D03*
X00728Y00698D03*
Y00738D03*
X00807D03*
Y00698D03*
X00551Y00482D03*
Y00521D03*
Y00561D03*
Y006D03*
X00964Y00442D03*
Y00639D03*
X00649Y00423D03*
X0061D03*
Y00659D03*
X00649D03*
X00728Y00423D03*
X00688D03*
X00728Y00659D03*
X00688D03*
X00807Y00423D03*
Y00659D03*
X00885Y00423D03*
X00846D03*
Y00659D03*
X00885D03*
X00925Y00423D03*
Y00659D03*
X0057Y00442D03*
Y00639D03*
X00984Y00482D03*
Y00521D03*
Y00561D03*
Y006D03*
X00177Y01161D03*
X00098D03*
X01082D03*
X00925D03*
X01003D03*
X00255Y00019D03*
X00334D03*
X00098D03*
X00177D03*
X00846Y00019D03*
X00767D03*
X01003D03*
X00925D03*
X00551Y00816D03*
X00649Y00777D03*
X00688D03*
X00728D03*
X00885D03*
X00846D03*
X00807D03*
X01003D03*
X00964D03*
X00925D03*
X01082D03*
X01043D03*
Y00954D03*
X01082D03*
X00925D03*
X00964D03*
X01003D03*
X00807D03*
X00846D03*
X00885D03*
X00767D03*
X00728D03*
X00688D03*
X00649D03*
X0061D03*
X0057D03*
X0061Y00777D03*
X0057D03*
X00531Y00954D03*
X00492D03*
X00551Y00915D03*
X00531Y00777D03*
X00492D03*
X00452Y00954D03*
X00413D03*
X00374D03*
X00334D03*
X00216D03*
X00255D03*
X00295D03*
X00098D03*
X00137D03*
X00177D03*
Y00777D03*
X00137D03*
X00098D03*
X00295D03*
X00255D03*
X00216D03*
X00334D03*
X00374D03*
X00413D03*
X00452D03*
G54D29*
X00931Y00148D02*
D01*
X00933Y00146*
X00936Y00144*
X00938Y00142*
X00941Y0014*
X00944Y00139*
X00947Y00137*
X00951Y00136*
X00954Y00136*
X00957Y00135*
X0096Y00134*
X00964Y00134*
X00965Y00134*
X01003D02*
D01*
X01006Y00134*
X0101Y00135*
X01013Y00135*
X01016Y00136*
X01019Y00137*
X01022Y00138*
X01026Y0014*
X01028Y00142*
X01031Y00143*
X01034Y00146*
X01036Y00148*
X01037Y00148*
X00965Y00238D02*
D01*
X00961Y00237*
X00958Y00237*
X00955Y00237*
X00951Y00236*
X00948Y00235*
X00945Y00233*
X00942Y00232*
X00939Y0023*
X00936Y00228*
X00934Y00226*
X00931Y00224*
X00931Y00223*
X01037D02*
D01*
X01034Y00226*
X01032Y00228*
X01029Y0023*
X01026Y00232*
X01023Y00233*
X0102Y00234*
X01017Y00235*
X01014Y00236*
X0101Y00237*
X01007Y00237*
X01004Y00238*
X01003Y00238*
X00954Y00188D02*
D01*
X00952Y00186*
X0095Y00184*
X00948Y00181*
X00947Y00179*
X00946Y00177*
X00945Y00174*
X00944Y00171*
X00943Y00169*
X00942Y00166*
X00942Y00163*
X00942Y0016*
X00942Y00159*
X01012Y00179D02*
D01*
X01014Y00181*
X01016Y00184*
X01018Y00187*
X0102Y0019*
X01021Y00193*
X01023Y00196*
X01024Y00199*
X01024Y00202*
X01025Y00205*
X01025Y00208*
X01026Y00212*
X01026Y00212*
X00925Y00162D02*
D01*
X00925Y0016*
X00925Y00159*
X00926Y00158*
X00926Y00156*
X00926Y00155*
X00927Y00154*
X00927Y00153*
X00928Y00152*
X00929Y00151*
X00929Y0015*
X0093Y00149*
X00931Y00148*
X00984Y00185D02*
D01*
X00981Y00182*
X00979Y0018*
X00977Y00177*
X00976Y00174*
X00974Y00171*
X00973Y00168*
X00972Y00165*
X00971Y00162*
X0097Y00158*
X0097Y00155*
X0097Y00152*
X0097Y00151*
X01012Y00179D02*
D01*
X01009Y00176*
X01007Y00174*
X01005Y00171*
X01004Y00168*
X01002Y00165*
X01001Y00162*
X01Y00159*
X00999Y00156*
X00998Y00153*
X00998Y0015*
X00998Y00146*
X00998Y00145*
X01037Y00148D02*
D01*
X01038Y00149*
X01039Y0015*
X01039Y00151*
X0104Y00153*
X01041Y00154*
X01041Y00155*
X01042Y00156*
X01042Y00157*
X01042Y00159*
X01042Y0016*
X01042Y00161*
X01042Y00162*
X00931Y00223D02*
D01*
X0093Y00223*
X00929Y00222*
X00928Y0022*
X00927Y00219*
X00927Y00218*
X00926Y00217*
X00926Y00216*
X00926Y00215*
X00925Y00213*
X00925Y00212*
X00925Y00211*
X00925Y0021*
X00956Y0019D02*
D01*
X00958Y00193*
X0096Y00195*
X00962Y00198*
X00964Y00201*
X00965Y00204*
X00967Y00207*
X00968Y0021*
X00969Y00213*
X00969Y00216*
X0097Y0022*
X0097Y00223*
X0097Y00224*
X00984Y00185D02*
D01*
X00986Y00187*
X00988Y0019*
X0099Y00192*
X00992Y00195*
X00993Y00198*
X00995Y00201*
X00996Y00204*
X00996Y00208*
X00997Y00211*
X00998Y00214*
X00998Y00217*
X00998Y00218*
X01042Y0021D02*
D01*
X01042Y00212*
X01042Y00213*
X01042Y00214*
X01042Y00215*
X01041Y00217*
X01041Y00218*
X0104Y00219*
X0104Y0022*
X01039Y00221*
X01038Y00222*
X01037Y00223*
X01037Y00223*
X00942Y00159D02*
Y00212D01*
X01026Y00159D02*
Y00212D01*
X0097Y00145D02*
Y00226D01*
X00998Y00145D02*
Y00226D01*
X0097Y00218D02*
Y00226D01*
X00998Y00218D02*
Y00226D01*
Y00218D02*
Y00226D01*
X0097Y00224D02*
Y00226D01*
X00925Y00162D02*
Y00187D01*
Y0021*
X00998Y00238D02*
X01003D01*
X00965D02*
X00998D01*
X00954Y00188D02*
X00956Y0019D01*
X01012Y00179D02*
X01012Y00179D01*
X00998Y00134D02*
X01003D01*
X00965D02*
X00998D01*
X01042Y00162D02*
Y00185D01*
Y0021*
X01042Y00078D02*
Y00055D01*
X0105Y00078D02*
X01034D01*
X01014Y00073D02*
X01015Y00075D01*
X01018Y00077*
X0102Y00078*
X01024*
X01027Y00077*
X01029Y00075*
X0103Y00073*
X01031Y00069*
Y00064*
X0103Y0006*
X01029Y00058*
X01027Y00056*
X01024Y00055*
X0102*
X01018Y00056*
X01015Y00058*
X01014Y0006*
X00992Y00075D02*
X00994Y00077D01*
X00997Y00078*
X01002*
X01005Y00077*
X01008Y00075*
Y00073*
X01006Y0007*
X01005Y00069*
X01003Y00068*
X00996Y00066*
X00994Y00065*
X00993Y00064*
X00992Y00061*
Y00058*
X00994Y00056*
X00997Y00055*
X01002*
X01005Y00056*
X01008Y00058*
X00985Y00073D02*
Y00074D01*
X00984Y00076*
X00983Y00077*
X00981Y00078*
X00976*
X00974Y00077*
X00973Y00076*
X00972Y00074*
Y00071*
X00973Y00069*
X00975Y00066*
X00987Y00055*
X00971*
X00959Y00078D02*
X00962Y00077D01*
X00964Y00074*
X00966Y00068*
Y00065*
X00964Y00059*
X00962Y00056*
X00959Y00055*
X00957*
X00953Y00056*
X00951Y00059*
X0095Y00065*
Y00068*
X00951Y00074*
X00953Y00077*
X00957Y00078*
X00959*
X00943Y00073D02*
Y00074D01*
X00942Y00076*
X00941Y00077*
X00939Y00078*
X00934*
X00932Y00077*
X00931Y00076*
X0093Y00074*
Y00071*
X00931Y00069*
X00933Y00066*
X00945Y00055*
X00929*
X00923Y00074D02*
X00921Y00075D01*
X00918Y00078*
Y00055*
X01031Y00112D02*
X01034Y00115D01*
X01037Y00116*
X01041*
X01044Y00115*
X01047Y00112*
X01049Y00107*
Y00104*
X01047Y001*
X01044Y00097*
X01041Y00095*
X01037*
X01034Y00097*
X01031Y001*
X01008Y00112D02*
X01009Y00115D01*
X01014Y00116*
X01018*
X01023Y00115*
X01024Y00112*
X01023Y00109*
X0102Y00107*
X01012Y00106*
X01009Y00104*
X01008Y00101*
Y001*
X01009Y00097*
X01014Y00095*
X01018*
X01023Y00097*
X01024Y001*
X01001Y00116D02*
X00995Y00095D01*
X00989Y00116D02*
X00995Y00095D01*
X00989Y00116D02*
X00983Y00095D01*
X00977Y00116D02*
X00983Y00095D01*
X00968Y00098D02*
X0097Y00097D01*
X00968Y00095*
X00967Y00097*
X00968Y00098*
X00942Y00112D02*
X00945Y00115D01*
X00948Y00116*
X00952*
X00955Y00115*
X00958Y00112*
X0096Y00107*
Y00104*
X00958Y001*
X00955Y00097*
X00952Y00095*
X00948*
X00945Y00097*
X00942Y001*
X00935Y00116D02*
X00919Y00095D01*
Y00116D02*
X00935Y00095D01*
G54D30*
X00797Y01082D03*
X00305D03*
G54D31*
X00994Y0096D03*
Y00771D03*
G54D32*
X00451Y00059D03*
X00551D03*
X00651D03*
M02*