%FSTAX23Y23*%
%MOIN*%
%SFA1B1*%

%IPPOS*%
%AMD12*
4,1,8,-0.016300,-0.013800,0.016300,-0.013800,0.017700,-0.012400,0.017700,0.012400,0.016300,0.013800,-0.016300,0.013800,-0.017700,0.012400,-0.017700,-0.012400,-0.016300,-0.013800,0.0*
1,1,0.002760,-0.016300,-0.012400*
1,1,0.002760,0.016300,-0.012400*
1,1,0.002760,0.016300,0.012400*
1,1,0.002760,-0.016300,0.012400*
%
%AMD14*
4,1,8,-0.013800,0.024800,-0.013800,-0.024800,-0.011000,-0.027600,0.011000,-0.027600,0.013800,-0.024800,0.013800,0.024800,0.011000,0.027600,-0.011000,0.027600,-0.013800,0.024800,0.0*
1,1,0.005520,-0.011000,0.024800*
1,1,0.005520,-0.011000,-0.024800*
1,1,0.005520,0.011000,-0.024800*
1,1,0.005520,0.011000,0.024800*
%
%AMD15*
4,1,8,0.010800,-0.017000,0.010800,0.017000,0.008100,0.019700,-0.008100,0.019700,-0.010800,0.017000,-0.010800,-0.017000,-0.008100,-0.019700,0.008100,-0.019700,0.010800,-0.017000,0.0*
1,1,0.005420,0.008100,-0.017000*
1,1,0.005420,0.008100,0.017000*
1,1,0.005420,-0.008100,0.017000*
1,1,0.005420,-0.008100,-0.017000*
%
%AMD16*
4,1,8,0.010800,-0.017000,0.010800,0.017000,0.008100,0.019700,-0.008100,0.019700,-0.010800,0.017000,-0.010800,-0.017000,-0.008100,-0.019700,0.008100,-0.019700,0.010800,-0.017000,0.0*
1,1,0.005420,0.008100,-0.017000*
1,1,0.005420,0.008100,0.017000*
1,1,0.005420,-0.008100,0.017000*
1,1,0.005420,-0.008100,-0.017000*
%
%ADD10R,0.023620X0.027560*%
%ADD11R,0.027560X0.023620*%
G04~CAMADD=12~8~0.0~0.0~354.3~275.6~13.8~0.0~15~0.0~0.0~0.0~0.0~0~0.0~0.0~0.0~0.0~0~0.0~0.0~0.0~180.0~354.0~276.0*
%ADD12D12*%
%ADD13R,0.035430X0.027560*%
G04~CAMADD=14~8~0.0~0.0~551.2~275.6~27.6~0.0~15~0.0~0.0~0.0~0.0~0~0.0~0.0~0.0~0.0~0~0.0~0.0~0.0~90.0~276.0~552.0*
%ADD14D14*%
G04~CAMADD=15~8~0.0~0.0~393.7~216.5~27.1~0.0~15~0.0~0.0~0.0~0.0~0~0.0~0.0~0.0~0.0~0~0.0~0.0~0.0~270.0~217.0~394.0*
%ADD15D15*%
G04~CAMADD=16~8~0.0~0.0~393.7~216.5~27.1~0.0~15~0.0~0.0~0.0~0.0~0~0.0~0.0~0.0~0.0~0~0.0~0.0~0.0~270.0~217.0~394.0*
%ADD16D16*%
%ADD27C,0.019680*%
%ADD28C,0.007870*%
%ADD29C,0.005910*%
%ADD30C,0.196850*%
%ADD31R,0.196850X0.039370*%
%ADD32C,0.059060*%
%LNcsgb-1*%
%LPD*%
G36*
X01102Y00937D02*
X00944D01*
Y01181*
X01102*
Y00937*
G37*
G36*
X00944Y01181D02*
Y00937D01*
X0061*
X00605Y00936*
X00596Y00934*
X00587Y00931*
X0058Y00926*
X00573Y00919*
X00568Y00912*
X00565Y00903*
X00563Y00894*
X00562Y00889*
Y00842*
X00563Y00837*
X00565Y00828*
X00568Y0082*
X00573Y00812*
X0058Y00806*
X00587Y008*
X00596Y00797*
X00605Y00795*
X0061Y00795*
X00748*
Y00669*
Y00639*
X00618*
X00613Y00639*
X00604Y00637*
X00595Y00634*
X00588Y00629*
X00581Y00622*
X00576Y00614*
X00572Y00606*
X00571Y00597*
X0057Y00592*
Y00639*
Y00442*
Y0049*
X00571Y00485*
X00572Y00476*
X00576Y00467*
X00581Y0046*
X00588Y00453*
X00595Y00448*
X00604Y00444*
X00613Y00443*
X00618Y00442*
X00755*
Y00334*
X00748*
Y00326*
Y00319*
X00657*
Y00328*
X00606*
Y00302*
X00556Y00263*
X0054*
X00536Y00263*
X00532Y0026*
X0053Y00257*
X00529Y00253*
Y00203*
X0053Y00199*
X00532Y00195*
X00536Y00193*
X00539Y00192*
Y00094*
X00532Y00091*
X00524Y00085*
X00518Y00077*
X00514Y00068*
X00513Y00059*
X00514Y00049*
X00518Y0004*
X00524Y00032*
X00532Y00026*
X00541Y00022*
X00551Y00021*
X0056Y00022*
X0057Y00026*
X00577Y00032*
X00583Y0004*
X00587Y00049*
X00588Y00059*
X00587Y00068*
X00583Y00077*
X00577Y00085*
X0057Y00091*
X00563Y00094*
Y00192*
X00566Y00193*
X00569Y00195*
X00572Y00199*
X00573Y00203*
Y00246*
X00623Y00285*
X00657*
Y00295*
X00748*
Y00283*
X00787*
Y00311*
Y00334*
X00779*
Y00442*
X00917*
X00921Y00443*
X00931Y00444*
X00939Y00448*
X00947Y00453*
X00953Y0046*
X00958Y00467*
X00962Y00476*
X00964Y00485*
X00964Y0049*
Y00442*
Y00639*
Y00592*
X00964Y00597*
X00962Y00606*
X00958Y00614*
X00953Y00622*
X00947Y00629*
X00939Y00634*
X00931Y00637*
X00921Y00639*
X00917Y00639*
X00787*
Y00657*
Y00795*
X01102Y00795*
Y00669*
Y0*
X0*
Y00657*
Y00795*
X00157Y00795*
X00492*
X00496Y00795*
X00505Y00797*
X00514Y008*
X00522Y00806*
X00528Y00812*
X00533Y0082*
X00537Y00828*
X00539Y00837*
X00539Y00842*
Y00889*
X00539Y00894*
X00537Y00903*
X00533Y00912*
X00528Y00919*
X00522Y00926*
X00514Y00931*
X00505Y00934*
X00496Y00936*
X00492Y00937*
X00157*
X0*
Y01181*
X00157*
X00944*
G37*
G36*
X00772Y00903D02*
X00777Y00898D01*
X00779Y00892*
Y00889*
Y00866*
Y00842*
Y00839*
X00777Y00833*
X00772Y00829*
X00766Y00826*
X00594*
X00591*
X00585Y00829*
X00581Y00833*
X00578Y00839*
Y00842*
Y00866*
Y00889*
Y00892*
X00581Y00898*
X00585Y00903*
X00591Y00905*
X00594*
X00766*
X00772Y00903*
G37*
G36*
X0105Y00901D02*
X01068Y00894D01*
X01085Y00883*
X01092Y00876*
X01092Y00875*
Y00856*
X01092Y00856*
X01085Y00849*
X01068Y00838*
X0105Y0083*
X01031Y00826*
X00811*
X00807*
X00802Y00829*
X00797Y00833*
X00795Y00839*
Y00842*
Y00866*
X00795Y00889*
Y00892*
X00797Y00898*
X00802Y00903*
X00807Y00905*
X00811*
X01031*
X0105Y00901*
G37*
G36*
X00291Y00905D02*
X00294D01*
X003Y00903*
X00304Y00898*
X00307Y00892*
Y00889*
Y00866*
Y00842*
Y00839*
X00304Y00833*
X003Y00829*
X00294Y00826*
X00291*
X0007*
X00051Y0083*
X00033Y00838*
X00017Y00849*
X0001Y00856*
X00009Y00856*
Y00875*
X0001Y00876*
X00017Y00883*
X00033Y00894*
X00051Y00901*
X0007Y00905*
X00291*
G37*
G36*
X00507D02*
X00511D01*
X00516Y00903*
X00521Y00898*
X00523Y00892*
Y00889*
Y00866*
Y00842*
Y00839*
X00521Y00833*
X00516Y00829*
X00511Y00826*
X00507*
X00335*
X00329Y00829*
X00325Y00833*
X00322Y00839*
Y00842*
Y00866*
Y00889*
Y00892*
X00325Y00898*
X00329Y00903*
X00335Y00905*
X00507*
G37*
G36*
X00892Y0061D02*
X00899Y00604D01*
X0091Y00587*
X00918Y0057*
X00921Y00551*
Y00531*
X00918Y00512*
X0091Y00494*
X00899Y00478*
X00892Y00471*
X00767Y00541*
X00892Y0061*
G37*
G36*
X00767Y00541D02*
X00642Y00471D01*
X00635Y00478*
X00624Y00494*
X00617Y00512*
X00613Y00531*
Y00551*
X00617Y0057*
X00624Y00587*
X00635Y00604*
X00642Y0061*
X00767Y00541*
G37*
%LNcsgb-2*%
%LPC*%
G36*
X00472Y0062D02*
X00393D01*
Y00462*
X00433*
X00464Y00494*
X00466*
Y00496*
X00472Y00501*
Y0062*
G37*
G36*
X00374D02*
X00039D01*
Y00462*
X00374*
Y0062*
G37*
G36*
X00524Y00362D02*
X00502D01*
X00498Y00361*
X00495Y00359*
X00492Y00355*
X00491Y00351*
Y00319*
X00421*
Y00328*
X0037*
Y00302*
X0032Y00263*
X00303*
X00299Y00263*
X00296Y0026*
X00293Y00257*
X00293Y00253*
Y00203*
X00293Y00199*
X00296Y00195*
X00299Y00193*
X00303Y00192*
X00325*
X0033Y00193*
X00333Y00195*
X00336Y00199*
X00336Y00203*
Y00246*
X00387Y00285*
X00421*
Y00295*
X00494*
X00495Y00294*
X00498Y00291*
X00502Y00291*
X00524*
X00528Y00291*
X00532Y00294*
X00534Y00297*
X00535Y00301*
Y00351*
X00534Y00355*
X00532Y00359*
X00528Y00361*
X00524Y00362*
G37*
G36*
X00288D02*
X00266D01*
X00262Y00361*
X00258Y00359*
X00256Y00355*
X00255Y00351*
Y00319*
X00185*
Y00319*
X00184Y00323*
X00182Y00326*
X00179Y00328*
X00175Y00328*
X00143*
X00139Y00328*
X00136Y00326*
X00134Y00323*
X00133Y00319*
Y00294*
X00134Y00291*
X00136Y00288*
X00139Y00285*
X00143Y00285*
X00175*
X00179Y00285*
X00182Y00288*
X00184Y00291*
X00185Y00294*
Y00295*
X00258*
X00258Y00294*
X00262Y00291*
X00266Y00291*
X00288*
X00292Y00291*
X00296Y00294*
X00298Y00297*
X00299Y00301*
Y00351*
X00298Y00355*
X00296Y00359*
X00292Y00361*
X00288Y00362*
G37*
G36*
X00651Y001D02*
X0064Y00099D01*
X0063Y00095*
X00624Y0009*
X00651Y00064*
X00677Y0009*
X00672Y00095*
X00661Y00099*
X00651Y001*
G37*
G36*
X01062Y00255D02*
X00905D01*
Y0013*
X00905*
Y00092*
X00904*
Y00041*
X00905*
Y00039*
X01062*
Y00041*
X01063*
Y00092*
X01063*
Y0013*
X01062*
Y00255*
G37*
G36*
X00683Y00085D02*
X00656Y00059D01*
X00683Y00032*
X00687Y00038*
X00691Y00048*
X00692Y00059*
X00691Y00069*
X00687Y00079*
X00683Y00085*
G37*
G36*
X00619D02*
X00615Y00079D01*
X0061Y00069*
X00609Y00059*
X0061Y00048*
X00615Y00038*
X00619Y00032*
X00645Y00059*
X00619Y00085*
G37*
G36*
X00175Y00269D02*
X00143D01*
X00139Y00269*
X00136Y00267*
X00134Y00264*
X00133Y0026*
Y00235*
X00134Y00232*
X00136Y00228*
X00139Y00226*
X00143Y00226*
X00147*
Y00189*
X00147*
X00148Y00179*
X00151Y00169*
X00156Y0016*
X00162Y00152*
X0017Y00146*
X00179Y00141*
X00188Y00138*
X00198Y00137*
Y00137*
X00199Y00137*
X002Y00137*
X00411*
X00412Y00137*
X00418Y00136*
X00425Y00134*
X00431Y00129*
X00435Y00124*
X00438Y00117*
X00439Y0011*
X00439Y0011*
Y00094*
X00432Y00091*
X00424Y00085*
X00418Y00077*
X00414Y00068*
X00413Y00059*
X00414Y00049*
X00418Y0004*
X00424Y00032*
X00432Y00026*
X00441Y00022*
X00451Y00021*
X0046Y00022*
X0047Y00026*
X00477Y00032*
X00483Y0004*
X00487Y00049*
X00488Y00059*
X00487Y00068*
X00483Y00077*
X00477Y00085*
X0047Y00091*
X00463Y00094*
Y0011*
X00463*
X00462Y0012*
X00459Y0013*
X00454Y00139*
X00448Y00146*
X0044Y00153*
X00431Y00157*
X00421Y0016*
X00411Y00161*
Y00161*
X002*
X00199Y00161*
X00198Y00161*
Y00161*
X00191Y00162*
X00185Y00165*
X00179Y00169*
X00175Y00175*
X00172Y00182*
X00171Y00188*
X00171Y00189*
Y00226*
X00175*
X00179Y00226*
X00182Y00228*
X00184Y00232*
X00185Y00235*
Y0026*
X00184Y00264*
X00182Y00267*
X00179Y00269*
X00175Y00269*
G37*
G36*
X00651Y00053D02*
X00624Y00027D01*
X0063Y00022*
X0064Y00018*
X00651Y00017*
X00661Y00018*
X00672Y00022*
X00677Y00027*
X00651Y00053*
G37*
%LNcsgb-3*%
%LPD*%
G36*
X00455Y00588D02*
X00455Y00588D01*
X00456Y00587*
X00457Y00587*
X00457Y00586*
X00458Y00585*
X00458Y00584*
Y00559*
X00458Y00559*
X00458Y00558*
X00457Y00557*
X00457Y00556*
X00456Y00556*
X00455Y00555*
X00455Y00555*
X00454Y00555*
X00454*
X00453Y00555*
X00453Y00555*
X00452Y00556*
X00452Y00556*
X00451Y00557*
X00451Y00558*
X0045Y00559*
Y00567*
X00418*
X00422Y0056*
X00422Y0056*
X00422Y00559*
X00422Y00559*
X00423Y00558*
Y00558*
X00422Y00558*
X00422Y00557*
X00422Y00556*
X00422Y00556*
X00421Y00556*
X00421*
X00421Y00555*
X00421Y00555*
X0042Y00555*
X00419Y00555*
X00419Y00555*
X00418Y00555*
X00418*
X00418*
X00418Y00555*
X00417Y00555*
X00417Y00555*
X00416Y00555*
X00415Y00556*
X00415Y00557*
X00408Y00568*
X00408Y00568*
X00408Y00568*
X00408Y00568*
X00408Y00569*
X00407Y0057*
X00407Y00571*
X00407Y00572*
Y00572*
X00407Y00572*
X00407Y00573*
X00407Y00574*
X00408Y00574*
X00408Y00575*
X00408Y00575*
X00408Y00575*
X00409Y00575*
X00409Y00576*
X00409Y00576*
X0041Y00576*
X00411Y00576*
X00411Y00576*
X0045*
Y00584*
X0045Y00584*
X00451Y00585*
X00451Y00586*
X00451Y00587*
X00452Y00587*
X00453Y00588*
X00453Y00588*
X00454*
X00454*
X00455Y00588*
G37*
G36*
X00455Y00545D02*
X00455Y00545D01*
X00456Y00544*
X00456Y00544*
X00457Y00544*
X00457Y00543*
Y00543*
X00457Y00543*
X00457Y00543*
X00458Y00543*
X00458Y00542*
X00458Y00541*
X00458Y0054*
Y0054*
X00458Y0054*
X00458Y00539*
X00458Y00538*
X00458Y00538*
X00457Y00537*
X00457Y00537*
X00456Y00536*
X00442Y00527*
X00442Y00527*
X00441Y00526*
X00441Y00526*
X0044Y00526*
X00439Y00525*
X00439Y00524*
X00438Y00524*
Y00524*
X00438Y00523*
X00438Y00523*
X00438Y00523*
X00438Y00522*
X00438Y00521*
X00438Y0052*
Y00512*
X00454*
X00454*
X00454*
X00454Y00512*
X00455Y00512*
X00456Y00512*
X00456Y00512*
X00457Y00511*
X00457Y00511*
X00457Y00511*
X00457Y00511*
X00457Y0051*
X00458Y0051*
X00458Y00509*
X00458Y00509*
X00458Y00508*
Y00508*
X00458Y00507*
X00458Y00507*
X00458Y00506*
X00457Y00505*
X00457Y00505*
X00457Y00505*
X00457Y00504*
X00456Y00504*
X00456Y00504*
X00456Y00504*
X00455Y00504*
X00454Y00503*
X00454Y00503*
X00412*
X00412*
X00411*
X00411Y00503*
X0041Y00504*
X00409Y00504*
X00409Y00504*
X00408Y00505*
X00408Y00505*
X00408Y00505*
X00408Y00505*
X00408Y00505*
X00408Y00506*
X00407Y00506*
X00407Y00507*
X00407Y00508*
Y00527*
X00407Y00527*
Y00528*
X00407Y00529*
X00408Y00531*
X00408Y00533*
X00409Y00535*
X0041Y00537*
X0041Y00538*
X00411Y00539*
Y00539*
X00411Y00539*
X00412Y0054*
X00413Y0054*
X00414Y00541*
X00415Y00542*
X00417Y00543*
X0042Y00543*
X00421Y00543*
X00422Y00543*
X00422*
X00422*
X00423*
X00423Y00543*
X00424*
X00424Y00543*
X00426Y00543*
X00427Y00543*
X00429Y00542*
X0043Y00541*
X00432Y0054*
X00432Y0054*
X00433Y00539*
X00433Y00539*
X00434Y00538*
X00435Y00536*
X00435Y00535*
X00436Y00533*
X00437Y00531*
Y00531*
X00437Y00531*
X00437Y00531*
X00437Y00532*
X00438Y00533*
X00438Y00534*
X00439Y00534*
X00439Y00534*
X00439Y00535*
X00439Y00535*
X0044Y00536*
X0044Y00536*
X00441Y00537*
X00442Y00537*
X00452Y00544*
X00452*
X00452Y00544*
X00453Y00544*
X00454Y00545*
X00454Y00545*
X00455*
X00455*
X00455Y00545*
G37*
G36*
X00205Y00587D02*
X00206Y00587D01*
X00207Y00587*
X00207Y00587*
X00208Y00587*
X0021Y00586*
X00212Y00586*
X00213Y00585*
X00215Y00585*
X00216Y00584*
X00217Y00583*
X00217*
X00217Y00583*
X00217Y00583*
X00218Y00582*
X00218Y00582*
X00218Y00582*
X00218Y00581*
X00218Y00581*
X00218Y0058*
Y0058*
Y00579*
X00218Y00579*
X00218Y00579*
X00218Y00578*
X00218Y00577*
X00217Y00577*
X00217Y00577*
X00217Y00577*
X00217Y00576*
X00217Y00576*
X00216Y00576*
X00216Y00576*
X00215Y00576*
X00215*
X00214Y00576*
X00214Y00576*
X00213Y00576*
X00213Y00576*
X00213Y00576*
X00212Y00577*
X00212Y00577*
X00212Y00577*
X00211Y00577*
X00211Y00577*
X0021Y00578*
X00209Y00578*
X00208Y00578*
X00208*
X00208Y00578*
X00207Y00578*
X00207Y00579*
X00206Y00579*
X00206Y00579*
X00204Y00579*
X00204*
X00204Y00579*
X00203*
X00203Y00579*
X00202Y00578*
X002Y00578*
X00199Y00578*
X00198Y00577*
X00197Y00576*
X00197Y00576*
X00196Y00575*
X00196Y00575*
X00196Y00574*
X00196Y00574*
X00196Y00573*
X00195Y00573*
X00195Y00572*
X00195Y00571*
X00195Y00571*
X00195Y0057*
X00194Y00569*
X00194Y00568*
Y00566*
Y00566*
Y00566*
Y00566*
X00194Y00565*
Y00565*
X00194Y00564*
X00195Y00563*
X00195Y00561*
X00195Y0056*
X00196Y00558*
X00196Y00558*
X00197Y00557*
X00197Y00557*
X00197Y00557*
X00198Y00556*
X00199Y00556*
X002Y00555*
X00201Y00555*
X00203Y00554*
X00204Y00554*
X00205*
X00206Y00554*
X00206Y00554*
X00207Y00554*
X00208Y00555*
X00208*
X00208Y00555*
X00208Y00555*
X00209Y00555*
X0021Y00555*
X0021Y00555*
X00211Y00556*
X00212Y00556*
X00212*
X00212Y00556*
X00213Y00557*
X00213Y00557*
X00214Y00557*
X00214Y00557*
X00214Y00557*
X00214Y00557*
X00215*
X00216Y00557*
X00216Y00557*
X00216Y00557*
X00217Y00557*
X00217Y00557*
X00217Y00556*
X00218Y00556*
X00218Y00556*
X00218Y00556*
X00218Y00555*
X00218Y00555*
X00218Y00554*
X00218Y00554*
X00218Y00553*
Y00553*
Y00553*
Y00553*
X00218Y00552*
X00218Y00552*
X00218Y00551*
X00218Y00551*
X00218Y00551*
X00217Y0055*
X00217Y0055*
X00217Y00549*
X00216Y00549*
X00216Y00549*
X00216Y00549*
X00215Y00549*
X00215Y00548*
X00214Y00548*
X00213Y00548*
X00212Y00547*
X00211Y00547*
X0021Y00547*
X00209Y00546*
X00207Y00546*
X00205Y00546*
X00204Y00546*
X00203*
X00203Y00546*
X00202*
X00202Y00546*
X00201Y00546*
X002Y00546*
X00199Y00546*
X00197Y00547*
X00195Y00547*
X00193Y00548*
X00193*
X00193Y00548*
X00193Y00548*
X00192Y00549*
X00192Y00549*
X00191Y0055*
X00189Y00551*
X00188Y00552*
X00187Y00554*
X00186Y00555*
Y00555*
X00186Y00556*
X00186Y00556*
X00186Y00556*
X00186Y00557*
X00185Y00557*
X00185Y00558*
X00185Y00559*
X00185Y00559*
X00185Y0056*
X00184Y00562*
X00184Y00564*
X00184Y00566*
Y00566*
Y00567*
Y00567*
X00184Y00567*
Y00568*
X00184Y00569*
X00184Y00569*
X00184Y0057*
X00184Y00572*
X00185Y00574*
X00185Y00576*
X00186Y00577*
Y00577*
X00186Y00578*
X00186Y00578*
X00187Y00578*
X00187Y00579*
X00188Y0058*
X00189Y00581*
X0019Y00582*
X00192Y00584*
X00193Y00585*
X00193*
X00193Y00585*
X00194Y00585*
X00194Y00585*
X00194Y00585*
X00195Y00585*
X00196Y00586*
X00196Y00586*
X00198Y00586*
X002Y00587*
X00202Y00587*
X00204Y00587*
X00205*
X00205Y00587*
G37*
G36*
X00125Y00587D02*
X00125Y00587D01*
X00126Y00587*
X00126Y00586*
X00127Y00586*
X00128Y00586*
X00128Y00585*
X00128Y00585*
X00128Y00585*
X00128Y00585*
X00129Y00584*
X00129Y00583*
X00129Y00583*
X00129Y00582*
Y00551*
Y00551*
Y00551*
X00129Y0055*
X00129Y0055*
X00129Y00549*
X00128Y00548*
X00128Y00548*
X00128Y00547*
X00128Y00547*
X00127Y00547*
X00127Y00547*
X00127Y00547*
X00126Y00546*
X00125Y00546*
X00125Y00546*
X00124Y00546*
X00123*
X00123Y00546*
X00123Y00546*
X00122Y00546*
X00121Y00547*
X00121Y00547*
X0012Y00547*
X0012Y00547*
X0012Y00548*
X0012Y00548*
X00119Y00548*
X00119Y00549*
X00119Y00549*
X00119Y0055*
X00119Y00551*
Y00563*
X00102*
Y00551*
Y00551*
Y00551*
X00102Y0055*
X00102Y0055*
X00102Y00549*
X00102Y00548*
X00101Y00548*
X00101Y00547*
X00101Y00547*
X00101Y00547*
X001Y00547*
X001Y00547*
X00099Y00546*
X00099Y00546*
X00098Y00546*
X00097Y00546*
X00097*
X00096Y00546*
X00096Y00546*
X00095Y00546*
X00094Y00547*
X00094Y00547*
X00093Y00547*
X00093Y00547*
X00093Y00548*
X00093Y00548*
X00093Y00548*
X00092Y00549*
X00092Y00549*
X00092Y0055*
X00092Y00551*
Y00582*
Y00582*
Y00582*
X00092Y00583*
X00092Y00583*
X00092Y00584*
X00092Y00584*
X00093Y00585*
X00093Y00586*
X00093Y00586*
X00094Y00586*
X00094Y00586*
X00094Y00586*
X00095Y00586*
X00095Y00587*
X00096Y00587*
X00097Y00587*
X00097*
X00098Y00587*
X00098Y00587*
X00099Y00587*
X001Y00586*
X001Y00586*
X00101Y00586*
X00101Y00585*
X00101Y00585*
X00101Y00585*
X00101Y00585*
X00102Y00584*
X00102Y00583*
X00102Y00583*
X00102Y00582*
Y00571*
X00119*
Y00582*
Y00582*
Y00582*
X00119Y00583*
X00119Y00583*
X00119Y00584*
X00119Y00584*
X0012Y00585*
X0012Y00586*
X0012Y00586*
X0012Y00586*
X00121Y00586*
X00121Y00586*
X00122Y00586*
X00122Y00587*
X00123Y00587*
X00124Y00587*
X00124*
X00125Y00587*
G37*
G36*
X00173D02*
X00174Y00587D01*
X00174Y00587*
X00175Y00586*
X00175Y00586*
X00176Y00585*
X00176Y00585*
X00176Y00585*
X00176Y00585*
X00177Y00585*
X00177Y00584*
X00177Y00583*
X00177Y00583*
X00177Y00582*
Y00551*
Y0055*
Y0055*
X00177Y0055*
X00177Y00549*
X00177Y00549*
X00177Y00548*
X00176Y00548*
X00176Y00547*
X00176Y00547*
X00176Y00547*
X00175Y00547*
X00175Y00547*
X00175Y00546*
X00174Y00546*
X00173Y00546*
X00173Y00546*
X00172*
X00172Y00546*
X00171Y00546*
X00171Y00546*
X0017Y00546*
X0017Y00547*
X00169Y00547*
X00169Y00547*
X00169Y00547*
X00169Y00548*
X00169Y00548*
X00168Y00548*
X00168Y00549*
X00168Y0055*
X00168Y00551*
Y00567*
X00162Y00555*
X00161Y00555*
X00161Y00555*
X00161Y00555*
X00161Y00554*
X0016Y00553*
X0016Y00553*
X00159Y00553*
X00159*
X00159Y00553*
X00159Y00553*
X00159Y00552*
X00158Y00552*
X00157Y00552*
X00157*
X00156Y00552*
X00156*
X00155Y00552*
X00154Y00553*
X00154Y00553*
X00154Y00553*
X00154Y00553*
X00154Y00553*
X00153Y00554*
X00153Y00554*
X00153Y00555*
X00152Y00555*
X00146Y00567*
Y00551*
Y0055*
Y0055*
X00146Y0055*
X00146Y00549*
X00145Y00549*
X00145Y00548*
X00145Y00548*
X00144Y00547*
X00144Y00547*
X00144Y00547*
X00144Y00547*
X00144Y00547*
X00143Y00546*
X00142Y00546*
X00142Y00546*
X00141Y00546*
X00141*
X0014Y00546*
X0014Y00546*
X00139Y00546*
X00139Y00546*
X00138Y00547*
X00138Y00547*
X00138Y00547*
X00138Y00547*
X00137Y00548*
X00137Y00548*
X00137Y00548*
X00137Y00549*
X00137Y0055*
X00136Y00551*
Y00582*
Y00582*
Y00582*
X00137Y00583*
X00137Y00583*
X00137Y00584*
X00137Y00584*
X00137Y00585*
X00138Y00585*
X00138Y00586*
X00138Y00586*
X00138Y00586*
X00139Y00586*
X00139Y00586*
X0014Y00587*
X00141Y00587*
X00141Y00587*
X00142*
X00142Y00587*
X00142*
X00143Y00587*
X00144Y00586*
X00144Y00586*
X00144Y00586*
X00144Y00586*
X00145Y00586*
X00145Y00585*
X00145Y00585*
X00146Y00585*
X00146Y00584*
X00146Y00583*
X00157Y00564*
X00167Y00583*
Y00584*
X00168Y00584*
X00168Y00584*
X00168Y00585*
X00169Y00585*
X00169Y00586*
X0017Y00586*
X00171Y00587*
X00172Y00587*
X00173*
X00173Y00587*
G37*
G36*
X00307Y00587D02*
X00308Y00587D01*
X00309Y00587*
X0031Y00587*
X00312Y00586*
X00313Y00586*
X00313*
X00313Y00586*
X00313Y00586*
X00314Y00585*
X00315Y00585*
X00315Y00584*
X00316Y00584*
X00317Y00583*
X00318Y00582*
X00318Y00582*
X00318Y00581*
X00318Y00581*
X00319Y0058*
X00319Y00579*
X00319Y00578*
X00319Y00577*
X0032Y00576*
Y00576*
Y00576*
X00319Y00575*
X00319Y00574*
X00319Y00573*
X00319Y00572*
X00318Y00571*
X00318Y0057*
X00318Y0057*
X00318Y0057*
X00317Y0057*
X00317Y00569*
X00316Y00569*
X00315Y00568*
X00314Y00567*
X00313Y00567*
X00313*
X00313Y00567*
X00314Y00567*
X00314Y00567*
X00315Y00566*
X00316Y00566*
X00317Y00565*
X00318Y00564*
X00319Y00563*
X00319Y00563*
X00319Y00563*
X00319Y00562*
X0032Y00562*
X0032Y00561*
X0032Y0056*
X0032Y00559*
X00321Y00557*
Y00557*
Y00557*
Y00557*
X0032Y00556*
X0032Y00555*
X0032Y00554*
X0032Y00553*
X00319Y00552*
X00319Y00551*
X00319Y00551*
X00318Y00551*
X00318Y0055*
X00317Y0055*
X00317Y00549*
X00316Y00548*
X00314Y00548*
X00313Y00547*
X00313*
X00313Y00547*
X00313Y00547*
X00313Y00547*
X00312Y00547*
X00311Y00547*
X0031Y00546*
X00308Y00546*
X00307Y00546*
X00305Y00546*
X00305*
X00304Y00546*
X00303Y00546*
X00302Y00546*
X00301Y00546*
X00299Y00546*
X00298Y00547*
X00298*
X00298Y00547*
X00297Y00547*
X00297Y00547*
X00296Y00547*
X00295Y00548*
X00294Y00548*
X00293Y00549*
X00292Y0055*
X00292*
X00292Y0055*
X00291Y0055*
X00291Y00551*
X00291Y00551*
Y00551*
X00291Y00551*
X0029Y00552*
X0029Y00552*
X0029Y00553*
Y00553*
Y00554*
X0029Y00554*
X0029Y00554*
X00291Y00555*
X00291Y00556*
X00291Y00556*
X00291Y00556*
X00291Y00556*
X00292Y00557*
X00292Y00557*
X00293Y00557*
X00293Y00557*
X00294Y00557*
X00294*
X00295Y00557*
X00295Y00557*
X00295Y00557*
X00295Y00557*
X00296Y00557*
X00297Y00556*
X00297*
X00297Y00556*
X00297Y00556*
X00297*
X00298Y00556*
X00298Y00556*
X00298Y00556*
X00298Y00556*
X00299Y00555*
X00299Y00555*
X003Y00555*
X00301Y00554*
X00301*
X00302Y00554*
X00302Y00554*
X00302Y00554*
X00303Y00554*
X00303Y00554*
X00305Y00554*
X00305*
X00306Y00554*
X00306Y00554*
X00308Y00554*
X00309Y00555*
X00309Y00555*
X00309Y00555*
X00309Y00555*
X0031Y00555*
X0031Y00556*
X0031Y00556*
X0031Y00557*
X00311Y00558*
X00311Y00558*
Y00558*
Y00559*
X00311Y00559*
X0031Y0056*
X0031Y0056*
X0031Y00561*
X0031Y00561*
X00309Y00562*
X00309Y00562*
X00309Y00562*
X00309Y00562*
X00308Y00562*
X00307Y00562*
X00307Y00562*
X00306Y00562*
X00305Y00563*
X00301*
X003Y00563*
X003Y00563*
X003Y00563*
X00299Y00563*
X00299Y00563*
X00298Y00564*
X00298Y00564*
X00298Y00564*
X00298Y00564*
X00298Y00565*
X00298Y00565*
X00297Y00565*
X00297Y00566*
X00297Y00567*
Y00567*
Y00567*
X00297Y00567*
X00297Y00568*
X00298Y00569*
X00298Y00569*
X00298Y00569*
X00298Y0057*
X00298Y0057*
X00299Y0057*
X00299Y0057*
X00299Y0057*
X003Y00571*
X003Y00571*
X00301Y00571*
X00304*
X00305Y00571*
X00305Y00571*
X00307Y00571*
X00307Y00571*
X00308Y00572*
X00308Y00572*
X00308Y00572*
X00309Y00572*
X00309Y00572*
X00309Y00573*
X00309Y00573*
X00309Y00574*
X0031Y00575*
Y00575*
Y00575*
X00309Y00575*
X00309Y00576*
X00309Y00576*
X00309Y00577*
X00309Y00577*
X00308Y00578*
X00308Y00578*
X00308Y00578*
X00308Y00578*
X00307Y00578*
X00307Y00579*
X00306Y00579*
X00306Y00579*
X00305Y00579*
X00304*
X00304Y00579*
X00303Y00579*
X00302Y00579*
X00302*
X00302Y00578*
X00301Y00578*
X00301Y00578*
X003Y00578*
X003Y00578*
X00299Y00577*
X00297Y00577*
X00297*
X00297Y00576*
X00297Y00576*
X00296Y00576*
X00296Y00576*
X00296*
X00295Y00576*
X00295Y00576*
X00294Y00575*
X00294*
X00294Y00576*
X00293Y00576*
X00293Y00576*
X00293Y00576*
X00292Y00576*
X00292Y00577*
X00292Y00577*
X00292Y00577*
X00292Y00577*
X00291Y00578*
X00291Y00578*
X00291Y00579*
X00291Y00579*
X00291Y0058*
Y0058*
Y0058*
Y0058*
X00291Y0058*
X00291Y00581*
X00291Y00582*
Y00582*
X00291Y00582*
X00292Y00582*
X00292Y00583*
X00293Y00583*
X00293Y00583*
X00293Y00584*
X00294Y00584*
X00294Y00584*
X00295Y00585*
X00296Y00585*
X00297Y00586*
X00298Y00586*
X00299*
X00299Y00586*
X00299Y00586*
X003Y00586*
X00301Y00587*
X00302Y00587*
X00303Y00587*
X00304Y00587*
X00305Y00587*
X00306*
X00307Y00587*
G37*
G36*
X00238D02*
X00239Y00587D01*
X0024Y00587*
X00241Y00587*
X00243Y00586*
X00244Y00586*
X00244*
X00244Y00586*
X00244Y00586*
X00245Y00585*
X00246Y00585*
X00247Y00584*
X00247Y00584*
X00248Y00583*
X00249Y00582*
X00249Y00582*
X00249Y00581*
X0025Y00581*
X0025Y0058*
X0025Y00579*
X0025Y00578*
X00251Y00577*
X00251Y00576*
Y00576*
Y00576*
X00251Y00575*
X0025Y00574*
X0025Y00573*
X0025Y00572*
X0025Y00571*
X00249Y0057*
X00249Y0057*
X00249Y0057*
X00248Y0057*
X00248Y00569*
X00247Y00569*
X00246Y00568*
X00246Y00567*
X00245Y00567*
X00245*
X00245Y00567*
X00245Y00567*
X00246Y00567*
X00246Y00566*
X00247Y00566*
X00248Y00565*
X00249Y00564*
X0025Y00563*
X0025Y00563*
X0025Y00563*
X0025Y00562*
X00251Y00562*
X00251Y00561*
X00251Y0056*
X00252Y00559*
X00252Y00557*
Y00557*
Y00557*
Y00557*
X00252Y00556*
X00252Y00555*
X00251Y00554*
X00251Y00553*
X0025Y00552*
X0025Y00551*
X0025Y00551*
X00249Y00551*
X00249Y0055*
X00248Y0055*
X00248Y00549*
X00247Y00548*
X00246Y00548*
X00244Y00547*
X00244*
X00244Y00547*
X00244Y00547*
X00244Y00547*
X00243Y00547*
X00242Y00547*
X00241Y00546*
X0024Y00546*
X00238Y00546*
X00236Y00546*
X00236*
X00235Y00546*
X00234Y00546*
X00233Y00546*
X00232Y00546*
X0023Y00546*
X00229Y00547*
X00229*
X00229Y00547*
X00229Y00547*
X00228Y00547*
X00227Y00547*
X00226Y00548*
X00225Y00548*
X00224Y00549*
X00223Y0055*
X00223*
X00223Y0055*
X00223Y0055*
X00222Y00551*
X00222Y00551*
Y00551*
X00222Y00551*
X00222Y00552*
X00221Y00552*
X00221Y00553*
Y00553*
Y00554*
X00221Y00554*
X00222Y00554*
X00222Y00555*
X00222Y00556*
X00222Y00556*
X00222Y00556*
X00223Y00556*
X00223Y00557*
X00223Y00557*
X00224Y00557*
X00224Y00557*
X00225Y00557*
X00225*
X00226Y00557*
X00226Y00557*
X00226Y00557*
X00227Y00557*
X00227Y00557*
X00228Y00556*
X00228*
X00228Y00556*
X00228Y00556*
X00229*
X00229Y00556*
X00229Y00556*
X00229Y00556*
X00229Y00556*
X0023Y00555*
X0023Y00555*
X00231Y00555*
X00232Y00554*
X00233*
X00233Y00554*
X00233Y00554*
X00233Y00554*
X00234Y00554*
X00235Y00554*
X00236Y00554*
X00236*
X00237Y00554*
X00238Y00554*
X00239Y00554*
X0024Y00555*
X0024Y00555*
X0024Y00555*
X00241Y00555*
X00241Y00555*
X00241Y00556*
X00241Y00556*
X00242Y00557*
X00242Y00558*
X00242Y00558*
Y00558*
Y00559*
X00242Y00559*
X00242Y0056*
X00241Y0056*
X00241Y00561*
X00241Y00561*
X0024Y00562*
X0024Y00562*
X0024Y00562*
X0024Y00562*
X00239Y00562*
X00239Y00562*
X00238Y00562*
X00237Y00562*
X00236Y00563*
X00232*
X00232Y00563*
X00231Y00563*
X00231Y00563*
X0023Y00563*
X0023Y00563*
X00229Y00564*
X00229Y00564*
X00229Y00564*
X00229Y00564*
X00229Y00565*
X00229Y00565*
X00229Y00565*
X00229Y00566*
X00228Y00567*
Y00567*
Y00567*
X00229Y00567*
X00229Y00568*
X00229Y00569*
X00229Y00569*
X00229Y00569*
X00229Y0057*
X0023Y0057*
X0023Y0057*
X0023Y0057*
X00231Y0057*
X00231Y00571*
X00232Y00571*
X00232Y00571*
X00235*
X00236Y00571*
X00236Y00571*
X00238Y00571*
X00239Y00571*
X00239Y00572*
X00239Y00572*
X00239Y00572*
X0024Y00572*
X0024Y00572*
X0024Y00573*
X0024Y00573*
X00241Y00574*
X00241Y00575*
Y00575*
Y00575*
X00241Y00575*
X00241Y00576*
X0024Y00576*
X0024Y00577*
X0024Y00577*
X00239Y00578*
X00239Y00578*
X00239Y00578*
X00239Y00578*
X00239Y00578*
X00238Y00579*
X00237Y00579*
X00237Y00579*
X00236Y00579*
X00235*
X00235Y00579*
X00234Y00579*
X00233Y00579*
X00233*
X00233Y00578*
X00232Y00578*
X00232Y00578*
X00232Y00578*
X00231Y00578*
X0023Y00577*
X00229Y00577*
X00229*
X00228Y00576*
X00228Y00576*
X00227Y00576*
X00227Y00576*
X00227*
X00226Y00576*
X00226Y00576*
X00225Y00575*
X00225*
X00225Y00576*
X00225Y00576*
X00224Y00576*
X00224Y00576*
X00223Y00576*
X00223Y00577*
X00223Y00577*
X00223Y00577*
X00223Y00577*
X00223Y00578*
X00222Y00578*
X00222Y00579*
X00222Y00579*
X00222Y0058*
Y0058*
Y0058*
Y0058*
X00222Y0058*
X00222Y00581*
X00222Y00582*
Y00582*
X00222Y00582*
X00223Y00582*
X00223Y00583*
X00224Y00583*
X00224Y00583*
X00224Y00584*
X00225Y00584*
X00225Y00584*
X00226Y00585*
X00227Y00585*
X00228Y00586*
X0023Y00586*
X0023*
X0023Y00586*
X0023Y00586*
X00231Y00586*
X00232Y00587*
X00233Y00587*
X00234Y00587*
X00235Y00587*
X00236Y00587*
X00237*
X00238Y00587*
G37*
G36*
X00275Y00587D02*
X00275Y00587D01*
X00276Y00586*
X00276Y00586*
X00277Y00586*
X00278Y00585*
X00278Y00585*
X00278Y00585*
X00278Y00585*
X00278Y00585*
X00279Y00584*
X00279Y00583*
X00279Y00583*
X00279Y00582*
Y00555*
X00284*
X00285Y00554*
X00285Y00554*
X00286Y00554*
X00287Y00554*
X00288Y00554*
X00288Y00553*
X00288Y00553*
X00288Y00553*
X00288Y00553*
X00288Y00552*
X00289Y00552*
X00289Y00551*
X00289Y0055*
Y0055*
Y0055*
Y0055*
X00289Y0055*
X00288Y00549*
X00288Y00548*
X00288Y00548*
X00288Y00548*
X00287Y00547*
X00287Y00547*
X00286Y00547*
X00285Y00546*
X00285Y00546*
X00284Y00546*
X00263*
X00263Y00546*
X00262Y00546*
X00261Y00547*
X0026Y00547*
X0026Y00548*
X0026Y00548*
X00259Y00548*
X00259Y00549*
X00259Y0055*
X00259Y0055*
Y00551*
Y00551*
X00259Y00551*
X00259Y00552*
X00259Y00552*
X00259Y00553*
X0026Y00553*
X0026Y00554*
X0026Y00554*
X0026Y00554*
X00261Y00554*
X00261Y00554*
X00261Y00554*
X00262Y00554*
X00263Y00554*
X00264Y00555*
X00268*
Y00575*
X00264Y00573*
X00264*
X00264Y00573*
X00263Y00572*
X00263Y00572*
X00262Y00572*
X00262*
X00261Y00572*
X00261Y00572*
X00261Y00572*
X0026Y00573*
X0026Y00573*
X00259Y00573*
X00259Y00573*
X00259Y00574*
X00259Y00574*
X00259Y00574*
X00258Y00575*
X00258Y00575*
X00258Y00576*
X00258Y00577*
Y00577*
Y00577*
X00258Y00577*
X00258Y00578*
X00259Y00578*
X00259Y00579*
X00259Y0058*
X0026Y0058*
X00269Y00585*
X00269Y00586*
X0027Y00586*
X0027Y00586*
X00271Y00586*
X00271Y00586*
X00272Y00587*
X00273Y00587*
X00274Y00587*
X00274*
X00275Y00587*
G37*
G36*
X00144Y00538D02*
X00144Y00537D01*
X00145Y00537*
X00145Y00537*
X00146Y00537*
X00147Y00536*
X00147Y00536*
X00147Y00536*
X00147Y00536*
X00148Y00535*
X00148Y00535*
X00148Y00534*
X00148Y00534*
X00148Y00533*
Y00533*
Y00532*
X00148Y00532*
X00148Y00532*
X00148Y00531*
X00148Y0053*
X00147Y0053*
X00147Y00529*
X00147Y00529*
X00146Y00529*
X00146Y00529*
X00146Y00529*
X00145Y00528*
X00144Y00528*
X00144Y00528*
X00143Y00528*
X00142*
X00142Y00528*
X00141Y00528*
X00141Y00528*
X0014Y00528*
X00139Y00529*
X00139Y00529*
X00138Y00529*
X00138Y00529*
X00138Y0053*
X00138Y0053*
X00138Y00531*
X00137Y00531*
X00137Y00532*
X00137Y00533*
Y00533*
Y00533*
X00137Y00534*
X00137Y00534*
X00137Y00535*
X00138Y00535*
X00138Y00536*
X00139Y00536*
X00139Y00536*
X00139Y00537*
X00139Y00537*
X0014Y00537*
X0014Y00537*
X00141Y00537*
X00142Y00538*
X00143Y00538*
X00143*
X00144Y00538*
G37*
G36*
X00085Y00536D02*
X00086Y00536D01*
X00087Y00536*
X00089Y00536*
X0009Y00535*
X00091Y00535*
X00091*
X00091Y00535*
X00092Y00535*
X00092Y00535*
X00093Y00534*
X00094Y00534*
X00095Y00533*
X00096Y00533*
X00097Y00532*
X00097*
X00097Y00532*
X00098Y00532*
X00098Y00531*
X00098Y00531*
X00099Y0053*
X00099Y0053*
X00099Y00529*
X00099Y00529*
Y00529*
Y00528*
X00099Y00528*
X00099Y00528*
X00098Y00527*
X00098Y00526*
X00098Y00526*
X00098Y00526*
X00098Y00525*
X00098Y00525*
X00097Y00525*
X00096Y00525*
X00096Y00524*
X00096Y00524*
X00095*
X00095Y00524*
X00094Y00525*
X00094Y00525*
X00094Y00525*
X00093Y00525*
X00092Y00525*
X00092Y00526*
X00092Y00526*
X00091Y00526*
X00091Y00526*
X0009Y00526*
X0009Y00527*
X00088Y00527*
X00088*
X00088Y00527*
X00088Y00527*
X00087Y00527*
X00086Y00528*
X00086Y00528*
X00084Y00528*
X00084*
X00083Y00528*
X00083*
X00082Y00528*
X00081Y00527*
X0008Y00527*
X00078Y00526*
X00077Y00526*
X00076Y00525*
X00076Y00524*
X00076Y00524*
X00075Y00524*
X00075Y00523*
X00075Y00523*
X00075Y00522*
X00075Y00522*
X00074Y00521*
X00074Y0052*
X00074Y00519*
X00074Y00518*
X00074Y00518*
X00073Y00516*
Y00515*
Y00515*
Y00515*
Y00515*
X00074Y00514*
Y00514*
X00074Y00513*
X00074Y00512*
X00074Y0051*
X00075Y00508*
X00075Y00507*
X00076Y00506*
X00076Y00506*
X00076Y00505*
X00077Y00505*
X00077Y00505*
X00078Y00504*
X0008Y00504*
X00081Y00503*
X00083Y00503*
X00085Y00503*
X00086*
X00086Y00503*
X00087Y00503*
X00088Y00503*
X0009Y00503*
Y00511*
X00086*
X00085Y00511*
X00085Y00511*
X00084Y00511*
X00084Y00511*
X00083Y00512*
X00083Y00512*
X00083Y00512*
X00083Y00512*
X00083Y00512*
X00082Y00513*
X00082Y00513*
X00082Y00514*
X00082Y00514*
Y00514*
Y00515*
X00082Y00515*
X00082Y00515*
X00083Y00516*
X00083Y00517*
X00083Y00517*
X00083Y00517*
X00083Y00517*
X00084Y00517*
X00084Y00517*
X00084Y00518*
X00085Y00518*
X00085Y00518*
X00086Y00518*
X00096*
X00096Y00518*
X00097Y00518*
X00097Y00518*
X00098Y00517*
X00098Y00517*
X00099Y00517*
X00099Y00517*
X00099Y00517*
X00099Y00516*
X00099Y00516*
X00099Y00516*
X001Y00515*
X001Y00515*
X001Y00514*
Y00504*
Y00504*
Y00504*
Y00503*
X001Y00502*
X001Y00501*
X00099Y005*
X00099Y005*
Y005*
X00099Y00499*
X00099Y00499*
X00099Y00499*
X00098Y00498*
X00098Y00497*
X00098*
X00097Y00497*
X00097Y00497*
X00097Y00497*
X00096Y00496*
X00096Y00496*
X00095Y00496*
X00094Y00496*
X00094*
X00094Y00496*
X00093Y00496*
X00093Y00495*
X00092Y00495*
X00091Y00495*
X0009Y00495*
X00089Y00495*
X00089*
X00089Y00495*
X00088*
X00088Y00495*
X00087Y00495*
X00086*
X00084Y00495*
X00084*
X00083Y00495*
X00083*
X00082Y00495*
X00081Y00495*
X0008Y00495*
X00079Y00495*
X00077Y00496*
X00075Y00496*
X00073Y00497*
X00073*
X00073Y00497*
X00072Y00497*
X00072Y00497*
X00071Y00498*
X0007Y00499*
X00069Y005*
X00068Y00501*
X00067Y00503*
X00065Y00504*
Y00504*
X00065Y00504*
X00065Y00505*
X00065Y00505*
X00065Y00505*
X00065Y00506*
X00064Y00507*
X00064Y00507*
X00064Y00508*
X00064Y00509*
X00063Y00511*
X00063Y00513*
X00063Y00515*
Y00515*
Y00516*
Y00516*
X00063Y00516*
Y00517*
X00063Y00518*
X00063Y00518*
X00063Y00519*
X00064Y00521*
X00064Y00523*
X00065Y00524*
X00065Y00526*
Y00526*
X00066Y00526*
X00066Y00527*
X00066Y00527*
X00067Y00528*
X00067Y00529*
X00068Y0053*
X0007Y00531*
X00071Y00532*
X00073Y00533*
X00073*
X00073Y00534*
X00073Y00534*
X00074Y00534*
X00074Y00534*
X00075Y00534*
X00075Y00534*
X00076Y00535*
X00077Y00535*
X00078Y00535*
X00079Y00536*
X00082Y00536*
X00084Y00536*
X00085*
X00085Y00536*
G37*
G36*
X00173Y00524D02*
X00174D01*
X00174Y00524*
X00176Y00524*
X00177Y00523*
X00178Y00523*
X00179Y00522*
X0018Y00521*
X0018Y00521*
X00181Y0052*
X00181Y0052*
X00181Y00519*
X00182Y00518*
X00182Y00517*
X00182Y00517*
X00182Y00516*
X00182Y00515*
X00183Y00514*
X00183Y00513*
Y00512*
Y00499*
Y00499*
Y00499*
X00183Y00499*
X00183Y00498*
X00182Y00498*
X00182Y00497*
X00182Y00496*
X00181Y00496*
X00181Y00496*
X00181Y00496*
X00181Y00496*
X0018Y00495*
X0018Y00495*
X00179Y00495*
X00178Y00495*
X00178Y00495*
X00177*
X00177Y00495*
X00176Y00495*
X00176Y00495*
X00175Y00495*
X00174Y00496*
X00174Y00496*
X00174Y00496*
X00174Y00496*
X00173Y00496*
X00173Y00497*
X00173Y00497*
X00173Y00498*
X00173Y00499*
X00172Y00499*
Y00511*
Y00511*
Y00512*
X00172Y00512*
X00172Y00513*
X00172Y00514*
X00172Y00515*
X00171Y00515*
X00171Y00515*
X00171Y00515*
X00171Y00515*
X00171Y00516*
X0017Y00516*
X0017Y00516*
X00169Y00516*
X00169Y00516*
X00169*
X00168Y00516*
X00168Y00516*
X00167Y00516*
X00166Y00516*
X00166Y00515*
X00165Y00515*
X00165Y00515*
X00165Y00514*
X00165Y00514*
X00165Y00514*
X00164Y00513*
X00164Y00512*
X00164Y00512*
X00164Y00511*
Y00499*
Y00499*
Y00499*
X00164Y00499*
X00164Y00498*
X00164Y00498*
X00163Y00497*
X00163Y00496*
X00163Y00496*
X00162Y00496*
X00162Y00496*
X00162Y00496*
X00162Y00495*
X00161Y00495*
X0016Y00495*
X0016Y00495*
X00159Y00495*
X00158*
X00158Y00495*
X00157Y00495*
X00157Y00495*
X00156Y00495*
X00156Y00496*
X00155Y00496*
X00155Y00496*
X00155Y00496*
X00155Y00496*
X00154Y00497*
X00154Y00497*
X00154Y00498*
X00154Y00499*
X00154Y00499*
Y00519*
Y00519*
Y0052*
X00154Y0052*
X00154Y0052*
X00154Y00521*
X00154Y00521*
X00155Y00522*
X00155Y00523*
X00155Y00523*
X00155Y00523*
X00156Y00523*
X00156Y00523*
X00157Y00523*
X00157Y00524*
X00158Y00524*
X00159Y00524*
X00159*
X0016Y00524*
X0016Y00524*
X00161Y00524*
X00161Y00523*
X00162Y00523*
X00162Y00523*
X00162Y00523*
X00163Y00522*
X00163Y00522*
X00163Y00522*
X00163Y00521*
X00163Y00521*
X00164Y0052*
X00164Y00519*
X00164Y0052*
X00164Y0052*
X00164Y0052*
X00165Y00521*
X00165Y00521*
X00166Y00522*
X00167Y00522*
X00167Y00523*
X00168Y00523*
X00168Y00523*
X00168Y00523*
X00169Y00523*
X0017Y00524*
X00171Y00524*
X00172Y00524*
X00173Y00524*
X00173*
X00173Y00524*
G37*
G36*
X00307D02*
X00308Y00524D01*
X00308Y00524*
X0031Y00523*
X0031*
X00311Y00523*
X00311Y00523*
X00312Y00523*
X00312Y00523*
X00313Y00522*
X00314Y00522*
X00314Y00521*
X00315Y00521*
X00315Y00521*
X00315Y00521*
X00316Y0052*
X00316Y0052*
X00316Y00519*
X00316Y00518*
Y00518*
Y00518*
X00316Y00518*
Y00517*
X00316Y00516*
X00316Y00516*
X00315Y00515*
Y00515*
X00315Y00515*
X00315Y00515*
X00314Y00514*
X00314Y00514*
X00313Y00514*
X00313*
X00312Y00514*
X00312Y00514*
X00311Y00514*
X00311Y00515*
X0031Y00515*
X0031Y00515*
X0031*
X0031Y00515*
X00309Y00516*
X00308Y00516*
X00308Y00516*
X00308Y00516*
X00307Y00516*
X00307Y00516*
X00306Y00516*
X00306*
X00305Y00516*
X00305*
X00304Y00516*
X00304Y00516*
X00303Y00515*
X00303Y00515*
X00302Y00515*
X00302Y00514*
X00301Y00513*
X00301Y00513*
X00301Y00512*
X003Y00511*
X003Y00509*
Y00509*
Y00509*
Y00509*
X003Y00508*
X00301Y00507*
X00301Y00507*
X00301Y00506*
X00301Y00505*
X00302Y00504*
X00302Y00504*
X00302Y00504*
X00302Y00503*
X00303Y00503*
X00303Y00503*
X00304Y00503*
X00305Y00502*
X00306Y00502*
X00307*
X00307Y00502*
X00308Y00503*
X00308*
X00308Y00503*
X00308Y00503*
X00309Y00503*
X0031Y00503*
X0031*
X0031Y00503*
X0031Y00504*
X00311Y00504*
X00312Y00504*
X00312Y00504*
X00312Y00504*
X00313Y00504*
X00313Y00504*
X00313*
X00314Y00504*
X00314Y00504*
X00314Y00504*
X00315Y00504*
X00315Y00504*
X00315Y00503*
X00315Y00503*
X00315Y00503*
X00316Y00503*
X00316Y00502*
X00316Y00502*
X00316Y00501*
X00316Y00501*
Y005*
Y005*
Y005*
X00316Y005*
X00316Y00499*
X00316Y00498*
X00316Y00498*
X00315Y00498*
X00315Y00497*
X00314Y00497*
X00314*
X00314Y00497*
X00314Y00497*
X00314Y00497*
X00313Y00496*
X00313Y00496*
X00312Y00496*
X00312Y00496*
X0031Y00495*
X00309Y00495*
X00307Y00495*
X00305Y00495*
X00304*
X00304Y00495*
X00303Y00495*
X00302Y00495*
X00302Y00495*
X00301Y00495*
X00299Y00496*
X00297Y00496*
X00296Y00497*
X00295Y00497*
X00295Y00498*
X00294Y00498*
X00294Y00499*
X00294Y00499*
X00293Y00499*
X00293Y00499*
X00293Y005*
X00293Y005*
X00292Y00501*
X00292Y00501*
X00291Y00502*
X00291Y00503*
X00291Y00504*
X0029Y00505*
X0029Y00507*
X0029Y00508*
X0029Y00509*
Y00509*
Y00509*
Y0051*
Y0051*
X0029Y00511*
X0029Y00512*
X0029Y00513*
X00291Y00514*
X00291Y00516*
X00292Y00517*
Y00517*
X00292Y00517*
X00292Y00517*
X00293Y00518*
X00293Y00519*
X00294Y0052*
X00295Y00521*
X00296Y00521*
X00297Y00522*
X00297*
X00297Y00522*
X00298Y00522*
X00298Y00522*
X00299Y00523*
X003Y00523*
X00301Y00523*
X00302Y00524*
X00304Y00524*
X00305Y00524*
X00306*
X00307Y00524*
G37*
G36*
X00326Y00536D02*
X00326Y00536D01*
X00327Y00535*
X00327Y00535*
X00328Y00535*
X00329Y00535*
X00329Y00534*
X00329Y00534*
X00329Y00534*
X00329Y00534*
X0033Y00533*
X0033Y00533*
X0033Y00532*
X0033Y00531*
Y00512*
X00341Y00522*
X00341Y00522*
X00341Y00523*
X00341Y00523*
X00342Y00523*
X00342Y00523*
X00343Y00524*
X00343Y00524*
X00344Y00524*
X00344*
X00345Y00524*
X00345Y00524*
X00346Y00524*
X00346Y00523*
X00347Y00523*
X00347Y00522*
X00347Y00522*
X00347Y00522*
X00348Y00522*
X00348Y00522*
X00348Y00521*
X00348Y00521*
X00349Y0052*
X00349Y00519*
Y00519*
Y00519*
X00349Y00519*
X00348Y00518*
X00348Y00518*
X00348Y00517*
X00348Y00517*
X00347Y00516*
X00341Y0051*
X00348Y00503*
X00348Y00503*
X00348Y00503*
X00348Y00502*
X00349Y00502*
X00349Y00501*
X00349Y00501*
X00349Y005*
X0035Y005*
Y005*
Y00499*
X00349Y00499*
X00349Y00498*
X00349Y00498*
X00349Y00497*
X00349Y00497*
X00348Y00496*
X00348Y00496*
X00348Y00496*
X00348Y00496*
X00347Y00496*
X00347Y00495*
X00346Y00495*
X00346Y00495*
X00345Y00495*
X00345*
X00344Y00495*
X00344Y00495*
X00343Y00495*
X00343Y00495*
X00342Y00496*
X00342Y00496*
X0033Y00507*
Y005*
Y00499*
Y00499*
X0033Y00499*
X0033Y00498*
X0033Y00498*
X00329Y00497*
X00329Y00497*
X00329Y00496*
X00329Y00496*
X00328Y00496*
X00328Y00496*
X00328Y00495*
X00327Y00495*
X00326Y00495*
X00326Y00495*
X00325Y00495*
X00325*
X00324Y00495*
X00324Y00495*
X00323Y00495*
X00323Y00495*
X00322Y00496*
X00321Y00496*
X00321Y00496*
X00321Y00496*
X00321Y00497*
X00321Y00497*
X0032Y00497*
X0032Y00498*
X0032Y00499*
X0032Y005*
Y00531*
Y00531*
Y00531*
X0032Y00532*
X0032Y00532*
X0032Y00533*
X0032Y00533*
X00321Y00534*
X00321Y00535*
X00321Y00535*
X00322Y00535*
X00322Y00535*
X00322Y00535*
X00323Y00535*
X00323Y00536*
X00324Y00536*
X00325Y00536*
X00325*
X00326Y00536*
G37*
G36*
X00247D02*
X00247Y00536D01*
X00248Y00535*
X00248Y00535*
X00249Y00535*
X00249Y00535*
X00249Y00534*
X0025Y00534*
X0025Y00534*
X0025Y00534*
X0025Y00533*
X00251Y00533*
X00251Y00532*
X00251Y00531*
Y00499*
Y00499*
Y00499*
X00251Y00499*
X00251Y00498*
X00251Y00497*
X0025Y00497*
X0025Y00496*
X00249Y00496*
X00249Y00496*
X00249Y00496*
X00249Y00496*
X00248Y00495*
X00248Y00495*
X00247Y00495*
X00247Y00495*
X00246Y00495*
X00245*
X00245Y00495*
X00244Y00495*
X00244Y00495*
X00243Y00495*
X00243Y00496*
X00242Y00496*
X00242Y00496*
X00242Y00496*
X00242Y00496*
X00241Y00497*
X00241Y00497*
X00241Y00498*
X00241Y00499*
X00241Y00499*
Y00531*
Y00531*
Y00531*
X00241Y00532*
X00241Y00532*
X00241Y00533*
X00241Y00533*
X00242Y00534*
X00242Y00535*
X00242Y00535*
X00242Y00535*
X00243Y00535*
X00243Y00535*
X00244Y00535*
X00244Y00536*
X00245Y00536*
X00246Y00536*
X00246*
X00247Y00536*
G37*
G36*
X00143Y00524D02*
X00144Y00524D01*
X00144Y00524*
X00145Y00523*
X00146Y00523*
X00146Y00523*
X00146Y00523*
X00146Y00522*
X00147Y00522*
X00147Y00522*
X00147Y00521*
X00148Y00521*
X00148Y0052*
X00148Y00519*
Y00499*
Y00499*
Y00499*
X00148Y00499*
X00148Y00498*
X00147Y00497*
X00147Y00497*
X00147Y00496*
X00146Y00496*
X00146Y00496*
X00146Y00496*
X00146Y00496*
X00145Y00495*
X00145Y00495*
X00144Y00495*
X00143Y00495*
X00143Y00495*
X00142*
X00142Y00495*
X00141Y00495*
X00141Y00495*
X0014Y00495*
X0014Y00496*
X00139Y00496*
X00139Y00496*
X00139Y00496*
X00139Y00496*
X00138Y00497*
X00138Y00497*
X00138Y00498*
X00138Y00499*
X00138Y00499*
Y00519*
Y00519*
Y00519*
X00138Y0052*
X00138Y0052*
X00138Y00521*
X00138Y00522*
X00138Y00522*
X00139Y00523*
X00139Y00523*
X00139Y00523*
X0014Y00523*
X0014Y00523*
X00141Y00524*
X00141Y00524*
X00142Y00524*
X00143Y00524*
X00143*
X00143Y00524*
G37*
G36*
X0012Y00524D02*
X00121D01*
X00121Y00524*
X00123Y00524*
X00124Y00523*
X00126Y00523*
X00127Y00522*
X00128Y00521*
X00129Y00521*
X00129*
X00129Y00521*
X00129Y0052*
X00129Y0052*
X00129Y0052*
X0013Y00519*
X0013Y00519*
X0013Y00518*
X00131Y00518*
X00131Y00517*
X00131Y00516*
X00131Y00515*
X00132Y00515*
X00132Y00514*
X00132Y00512*
Y00511*
Y00499*
Y00499*
Y00499*
X00132Y00499*
X00132Y00498*
X00132Y00498*
X00131Y00497*
X00131Y00496*
X00131Y00496*
X0013Y00496*
X0013Y00496*
X0013Y00496*
X0013Y00495*
X00129Y00495*
X00128Y00495*
X00128Y00495*
X00127Y00495*
X00127*
X00126Y00495*
X00126Y00495*
X00125Y00495*
X00125Y00495*
X00124Y00496*
X00124Y00496*
X00124Y00496*
X00123Y00496*
X00123Y00496*
X00123Y00497*
X00123Y00497*
X00123Y00498*
X00122Y00498*
X00122Y00499*
Y00499*
X00122Y00499*
X00122Y00498*
X00122Y00498*
X00121Y00497*
X00121Y00497*
X0012Y00496*
X0012Y00496*
X0012Y00496*
X00119Y00496*
X00119Y00495*
X00118Y00495*
X00118Y00495*
X00117Y00495*
X00116Y00495*
X00115Y00495*
X00115*
X00114Y00495*
X00113Y00495*
X00112Y00495*
X00112Y00495*
X00111Y00495*
X0011Y00496*
X0011Y00496*
X00109Y00496*
X00109Y00496*
X00108Y00497*
X00108Y00497*
X00107Y00498*
X00107Y00498*
X00106Y00499*
X00106Y00499*
X00106Y00499*
X00106Y005*
X00105Y005*
X00105Y00501*
X00105Y00502*
X00105Y00503*
X00105Y00504*
Y00504*
Y00504*
X00105Y00505*
X00105Y00505*
X00105Y00506*
X00105Y00507*
X00106Y00508*
X00106Y00509*
X00106Y00509*
X00107Y00509*
X00107Y00509*
X00107Y0051*
X00108Y0051*
X00109Y0051*
X0011Y00511*
X00111Y00511*
X00111*
X00111Y00511*
X00112*
X00112Y00511*
X00112Y00511*
X00113Y00511*
X00114Y00512*
X00115Y00512*
X00117Y00512*
X00119Y00512*
X00122*
Y00513*
Y00513*
Y00513*
X00122Y00513*
X00122Y00514*
X00122Y00515*
X00121Y00515*
X00121Y00516*
X00121Y00516*
X00121Y00516*
X00121Y00516*
X0012Y00516*
X0012Y00516*
X0012Y00516*
X00119Y00516*
X00118Y00517*
X00118*
X00117Y00516*
X00116Y00516*
X00115Y00516*
X00114Y00516*
X00113Y00515*
X00111Y00515*
X00111*
X00111Y00515*
X00111Y00515*
X0011Y00515*
X0011Y00515*
X00109Y00514*
X00109*
X00109Y00515*
X00108Y00515*
X00107Y00515*
X00107Y00515*
X00107Y00515*
Y00516*
X00107Y00516*
X00106Y00516*
X00106Y00516*
X00106Y00517*
X00106Y00517*
X00106Y00518*
X00106Y00518*
Y00518*
Y00518*
Y00519*
X00106Y00519*
X00106Y0052*
X00106Y0052*
Y0052*
X00106Y0052*
X00107Y00521*
X00107Y00521*
X00108Y00522*
X00108Y00522*
X00108Y00522*
X00109Y00522*
X00109Y00522*
X0011Y00523*
X00111Y00523*
X00112Y00523*
X00113Y00523*
X00113*
X00114Y00523*
X00114Y00524*
X00115Y00524*
X00116Y00524*
X00117Y00524*
X00119Y00524*
X0012*
X0012Y00524*
G37*
G36*
X00272D02*
X00273D01*
X00274Y00524*
X00275Y00524*
X00276Y00523*
X00278Y00523*
X00279Y00522*
X00279*
X00279Y00522*
X0028Y00522*
X0028Y00521*
X00281Y00521*
X00282Y0052*
X00283Y00519*
X00284Y00518*
X00285Y00517*
X00285Y00517*
X00285Y00517*
X00285Y00516*
X00286Y00515*
X00286Y00514*
X00286Y00512*
X00286Y00511*
X00287Y00509*
Y00509*
Y00509*
Y00509*
Y00509*
X00286Y00508*
X00286Y00507*
X00286Y00505*
X00286Y00504*
X00285Y00503*
X00285Y00501*
X00284Y00501*
X00284Y00501*
X00284Y005*
X00283Y005*
X00282Y00499*
X00282Y00498*
X0028Y00497*
X00279Y00496*
X00279*
X00279Y00496*
X00279Y00496*
X00279Y00496*
X00278Y00496*
X00277Y00496*
X00276Y00495*
X00274Y00495*
X00273Y00495*
X00271Y00495*
X0027*
X0027Y00495*
X00269*
X00268Y00495*
X00267Y00495*
X00266Y00495*
X00264Y00496*
X00263Y00496*
X00263*
X00263Y00496*
X00262Y00497*
X00262Y00497*
X00261Y00498*
X0026Y00498*
X00259Y00499*
X00258Y005*
X00257Y00501*
Y00502*
X00257Y00502*
X00257Y00502*
X00257Y00503*
X00256Y00504*
X00256Y00505*
X00256Y00506*
X00255Y00508*
X00255Y00509*
Y00509*
Y0051*
Y0051*
Y0051*
X00255Y00511*
X00256Y00512*
X00256Y00513*
X00256Y00514*
X00257Y00516*
X00257Y00517*
Y00517*
X00257Y00517*
X00258Y00518*
X00258Y00518*
X00259Y00519*
X00259Y0052*
X0026Y00521*
X00262Y00521*
X00263Y00522*
X00263*
X00263Y00522*
X00263Y00522*
X00263Y00522*
X00264Y00523*
X00265Y00523*
X00266Y00523*
X00268Y00524*
X00269Y00524*
X00271Y00524*
X00272*
X00272Y00524*
G37*
G36*
X00211Y00536D02*
X00211Y00536D01*
X00212Y00535*
X00212Y00535*
X00213Y00535*
X00214Y00535*
X00214Y00534*
X00214Y00534*
X00214Y00534*
X00214Y00534*
X00215Y00533*
X00215Y00533*
X00215Y00532*
X00215Y00531*
Y0052*
X00215Y0052*
X00215Y0052*
X00216Y00521*
X00216Y00521*
X00216Y00521*
X00217Y00522*
X00218Y00522*
X00219Y00523*
X00219Y00523*
X00219Y00523*
X00219Y00523*
X0022Y00523*
X00221Y00524*
X00222Y00524*
X00222Y00524*
X00223Y00524*
X00224*
X00225Y00524*
X00226Y00524*
X00227Y00524*
X00228Y00523*
X00229Y00523*
X0023Y00522*
X0023Y00522*
X0023Y00522*
X00231Y00521*
X00231Y00521*
X00232Y0052*
X00233Y00519*
X00234Y00518*
X00234Y00517*
X00234Y00517*
X00235Y00517*
X00235Y00516*
X00235Y00515*
X00235Y00514*
X00236Y00512*
X00236Y00511*
X00236Y00509*
Y00509*
Y00509*
Y00509*
Y00509*
X00236Y00508*
X00236Y00507*
X00236Y00506*
X00235Y00504*
X00235Y00503*
X00234Y00502*
X00234Y00501*
X00234Y00501*
X00234Y005*
X00233Y005*
X00233Y00499*
X00232Y00498*
X00231Y00497*
X0023Y00496*
X0023Y00496*
X00229Y00496*
X00229Y00496*
X00228Y00496*
X00227Y00495*
X00226Y00495*
X00225Y00495*
X00223Y00495*
X00223*
X00222Y00495*
X00222Y00495*
X00221Y00495*
X0022Y00495*
X00219Y00495*
X00218Y00496*
X00218Y00496*
X00218Y00496*
X00217Y00496*
X00217Y00497*
X00216Y00497*
X00216Y00498*
X00215Y00498*
X00215Y00499*
Y00499*
X00215Y00499*
X00215Y00498*
X00215Y00498*
X00214Y00497*
X00214Y00497*
X00214Y00496*
X00213Y00496*
X00213Y00496*
X00213Y00496*
X00213Y00496*
X00212Y00495*
X00212Y00495*
X00211Y00495*
X00211Y00495*
X0021Y00495*
X00209*
X00209Y00495*
X00208Y00495*
X00208Y00495*
X00207Y00495*
X00207Y00496*
X00206Y00496*
X00206Y00496*
X00206Y00496*
X00206Y00497*
X00205Y00497*
X00205Y00497*
X00205Y00498*
X00205Y00499*
X00205Y00499*
Y00531*
Y00531*
Y00532*
X00205Y00532*
X00205Y00532*
X00205Y00533*
X00205Y00533*
X00206Y00534*
X00206Y00534*
X00206Y00535*
X00206Y00535*
X00207Y00535*
X00207Y00535*
X00208Y00535*
X00208Y00536*
X00209Y00536*
X0021Y00536*
X0021*
X00211Y00536*
G37*
%LNcsgb-4*%
%LPC*%
G36*
X00422Y00535D02*
X00422D01*
X00422*
X00422*
X00421Y00535*
X0042Y00534*
X00419Y00534*
X00418Y00534*
X00417Y00533*
X00416Y00532*
X00416Y00532*
X00416Y00532*
X00416Y00531*
X00415Y0053*
X00415Y00529*
X00415Y00528*
X00414Y00526*
X00414Y00524*
Y00512*
X0043*
Y00525*
X0043Y00526*
X0043Y00527*
X0043Y00529*
X0043Y0053*
X00429Y00531*
X00429Y00532*
X00428Y00532*
X00428Y00533*
X00428Y00533*
X00427Y00533*
X00426Y00534*
X00425Y00534*
X00424Y00535*
X00422Y00535*
G37*
G36*
X00122Y00507D02*
X0012D01*
X00119Y00507*
X00117Y00507*
X00117Y00507*
X00116Y00507*
X00116*
X00116Y00507*
X00115Y00506*
X00115Y00506*
X00115Y00505*
X00115Y00505*
X00114Y00504*
Y00504*
Y00504*
X00115Y00504*
Y00504*
X00115Y00503*
X00115Y00503*
X00115Y00502*
X00115*
X00115Y00502*
X00116Y00502*
X00117Y00502*
X00117Y00501*
X00117Y00501*
X00118*
X00118Y00501*
X00119Y00502*
X00119Y00502*
X0012Y00502*
X0012Y00502*
X00121Y00503*
X00121Y00503*
X00121Y00503*
X00121Y00503*
X00121Y00504*
X00122Y00504*
X00122Y00505*
X00122Y00506*
X00122Y00507*
Y00507*
G37*
G36*
X00271Y00516D02*
X00271D01*
X0027Y00516*
X0027*
X00269Y00516*
X00269Y00516*
X00268Y00516*
X00268Y00515*
X00267Y00515*
X00267Y00514*
X00266Y00513*
X00266Y00513*
X00266Y00512*
X00266Y00511*
X00266Y00509*
Y00509*
Y00509*
X00266Y00509*
Y00508*
X00266Y00508*
X00266Y00507*
X00266Y00506*
X00266Y00505*
X00267Y00504*
X00267Y00504*
X00268Y00503*
X00268Y00503*
X00269Y00503*
X0027Y00502*
X00271Y00502*
X00271*
X00272Y00502*
X00272Y00502*
X00273Y00503*
X00273Y00503*
X00274Y00503*
X00274Y00503*
X00275Y00504*
X00275Y00505*
X00276Y00505*
X00276Y00506*
X00276Y00507*
X00276Y00508*
X00276Y00509*
Y00509*
Y0051*
Y0051*
X00276Y0051*
X00276Y00511*
X00276Y00512*
X00276Y00513*
X00275Y00514*
X00275Y00514*
X00275Y00515*
X00274Y00515*
X00273Y00516*
X00273Y00516*
X00272Y00516*
X00271Y00516*
G37*
G36*
X0022Y00516D02*
X0022D01*
X00219Y00516*
X00219Y00516*
X00218Y00516*
X00217Y00515*
X00217Y00515*
X00216Y00514*
X00216Y00514*
X00216Y00514*
X00216Y00514*
X00216Y00513*
X00215Y00512*
X00215Y00512*
X00215Y00511*
X00215Y00509*
Y00509*
Y00509*
Y00509*
X00215Y00508*
X00215Y00507*
X00215Y00507*
X00215Y00506*
X00216Y00505*
X00216Y00504*
X00216Y00504*
X00217Y00504*
X00217Y00503*
X00217Y00503*
X00218Y00503*
X00219Y00503*
X00219Y00502*
X0022Y00502*
X00221*
X00221Y00502*
X00222Y00502*
X00222Y00503*
X00223Y00503*
X00224Y00503*
X00224Y00504*
X00224Y00504*
X00225Y00504*
X00225Y00505*
X00225Y00505*
X00225Y00506*
X00226Y00507*
X00226Y00508*
X00226Y00509*
Y0051*
Y0051*
Y0051*
X00226Y00511*
X00226Y00511*
X00225Y00512*
X00225Y00513*
X00225Y00514*
X00224Y00515*
X00224Y00515*
X00224Y00515*
X00224Y00515*
X00223Y00515*
X00223Y00516*
X00222Y00516*
X00221Y00516*
X0022Y00516*
G37*
%LNcsgb-5*%
%LPD*%
G54D10*
X00334Y00866D03*
X00295D03*
X00767D03*
X00807D03*
X00767Y00305D03*
X00807D03*
G54D11*
X00767Y00462D03*
Y00501D03*
Y0058D03*
Y0062D03*
G54D12*
X00159Y00248D03*
Y00307D03*
G54D13*
X00395Y00248D03*
Y00307D03*
X00631Y00248D03*
Y00307D03*
G54D14*
X00277Y00326D03*
X00314Y00228D03*
X0024D03*
X00513Y00326D03*
X00551Y00228D03*
X00476D03*
G54D15*
X00588Y00748D03*
X00513D03*
Y00866D03*
X00588D03*
G54D16*
X00551Y00866D03*
Y00748D03*
G54D27*
X00984Y00757D03*
X00944D03*
X01023D03*
X01062D03*
X00974Y0098D03*
X00935D03*
X01013D03*
X01053D03*
X00078Y00974D03*
X00039D03*
X00118D03*
X00157D03*
Y00757D03*
X00118D03*
X00039D03*
X00078D03*
X00724Y01112D03*
X00718Y01082D03*
X00767Y01009D03*
X00797Y01003D03*
Y01161D03*
X00767Y01155D03*
X00852Y01027D03*
X00869Y01112D03*
X00875Y01082D03*
X00724Y01052D03*
X00869D03*
X00852Y01138D03*
X00741Y01027D03*
X00827Y01009D03*
Y01155D03*
X00741Y01138D03*
X00728Y00354D03*
Y00255D03*
X00019Y00954D03*
Y00777D03*
Y01161D03*
Y00728D03*
Y00098D03*
Y00255D03*
Y00177D03*
Y00413D03*
Y00334D03*
Y0057D03*
Y00492D03*
Y00649D03*
Y01003D03*
Y01082D03*
Y00019D03*
X00059Y00954D03*
Y00777D03*
X01082Y01082D03*
Y01003D03*
Y00649D03*
Y00492D03*
Y0057D03*
Y00334D03*
Y00413D03*
Y00177D03*
Y00255D03*
Y00098D03*
Y00728D03*
Y00019D03*
X00669Y01161D03*
X00433D03*
X00511D03*
X0059D03*
X00232Y01052D03*
Y01112D03*
X00274Y01009D03*
X0036Y01027D03*
X00377Y01052D03*
Y01112D03*
X0036Y01138D03*
X00226Y01082D03*
X00305Y01003D03*
Y01161D03*
X00274Y01155D03*
X00383Y01082D03*
X00335Y01009D03*
X00249Y01027D03*
Y01138D03*
X00335Y01155D03*
X00807Y00255D03*
Y00354D03*
X0059D03*
Y00196D03*
X00433Y00354D03*
Y00196D03*
X00354Y00354D03*
Y00196D03*
X00206D03*
Y00354D03*
X00728Y00698D03*
Y00738D03*
X00807D03*
Y00698D03*
X00551Y00482D03*
Y00521D03*
Y00561D03*
Y006D03*
X00964Y00442D03*
Y00639D03*
X00649Y00423D03*
X0061D03*
Y00659D03*
X00649D03*
X00728Y00423D03*
X00688D03*
X00728Y00659D03*
X00688D03*
X00807Y00423D03*
Y00659D03*
X00885Y00423D03*
X00846D03*
Y00659D03*
X00885D03*
X00925Y00423D03*
Y00659D03*
X0057Y00442D03*
Y00639D03*
X00984Y00482D03*
Y00521D03*
Y00561D03*
Y006D03*
X00177Y01161D03*
X00098D03*
X01082D03*
X00925D03*
X01003D03*
X00255Y00019D03*
X00334D03*
X00098D03*
X00177D03*
X00846Y00019D03*
X00767D03*
X01003D03*
X00925D03*
X00551Y00816D03*
X00649Y00777D03*
X00688D03*
X00728D03*
X00885D03*
X00846D03*
X00807D03*
X01003D03*
X00964D03*
X00925D03*
X01082D03*
X01043D03*
Y00954D03*
X01082D03*
X00925D03*
X00964D03*
X01003D03*
X00807D03*
X00846D03*
X00885D03*
X00767D03*
X00728D03*
X00688D03*
X00649D03*
X0061D03*
X0057D03*
X0061Y00777D03*
X0057D03*
X00531Y00954D03*
X00492D03*
X00551Y00915D03*
X00531Y00777D03*
X00492D03*
X00452Y00954D03*
X00413D03*
X00374D03*
X00334D03*
X00216D03*
X00255D03*
X00295D03*
X00098D03*
X00137D03*
X00177D03*
Y00777D03*
X00137D03*
X00098D03*
X00295D03*
X00255D03*
X00216D03*
X00334D03*
X00374D03*
X00413D03*
X00452D03*
G54D28*
X00451Y0011D02*
D01*
X00451Y00113*
X0045Y00115*
X0045Y00118*
X00449Y00121*
X00448Y00123*
X00447Y00126*
X00446Y00128*
X00445Y00131*
X00443Y00133*
X00441Y00135*
X0044Y00137*
X00438Y00139*
X00436Y00141*
X00433Y00143*
X00431Y00144*
X00429Y00145*
X00426Y00146*
X00423Y00147*
X00421Y00148*
X00418Y00149*
X00415Y00149*
X00413Y00149*
X00411Y00149*
X00159Y00189D02*
D01*
X00159Y00186*
X00159Y00183*
X0016Y00181*
X0016Y00178*
X00161Y00175*
X00162Y00173*
X00164Y0017*
X00165Y00168*
X00166Y00166*
X00168Y00163*
X0017Y00161*
X00172Y00159*
X00174Y00158*
X00176Y00156*
X00179Y00155*
X00181Y00153*
X00184Y00152*
X00186Y00151*
X00189Y00151*
X00191Y0015*
X00194Y0015*
X00197Y00149*
X00198Y00149*
X002D02*
X00411D01*
X00451Y00059D02*
Y0011D01*
X00159Y00189D02*
Y00248D01*
X00631Y00307D02*
X00767D01*
Y00311D02*
Y00462D01*
Y00501D02*
Y0058D01*
Y0062D02*
Y00866D01*
X00551Y00059D02*
Y00228D01*
X00159Y00307D02*
X00277D01*
X00324Y00252D02*
X00395Y00307D01*
X00561Y00252D02*
X00631Y00307D01*
X00395D02*
X00513D01*
G54D29*
X00998Y00224D02*
D01*
X00998Y00221*
X00998Y00217*
X00999Y00214*
X01Y00211*
X01001Y00208*
X01002Y00204*
X01003Y00201*
X01005Y00199*
X01007Y00196*
X01009Y00193*
X01011Y00191*
X01012Y0019*
X0097Y00218D02*
D01*
X0097Y00215*
X0097Y00212*
X00971Y00208*
X00972Y00205*
X00973Y00202*
X00974Y00199*
X00975Y00196*
X00977Y00193*
X00979Y0019*
X00981Y00188*
X00983Y00185*
X00984Y00185*
X00925Y00162D02*
D01*
X00925Y0016*
X00925Y00159*
X00926Y00158*
X00926Y00156*
X00926Y00155*
X00927Y00154*
X00927Y00153*
X00928Y00152*
X00929Y00151*
X00929Y0015*
X0093Y00149*
X00931Y00148*
Y00223D02*
D01*
X0093Y00223*
X00929Y00222*
X00928Y0022*
X00927Y00219*
X00927Y00218*
X00926Y00217*
X00926Y00216*
X00926Y00215*
X00925Y00213*
X00925Y00212*
X00925Y00211*
Y0021*
X01026Y00159D02*
D01*
X01026Y00162*
X01025Y00165*
X01025Y00168*
X01024Y00171*
X01023Y00173*
X01022Y00176*
X01021Y00178*
X01019Y00181*
X01018Y00183*
X01016Y00185*
X01014Y00188*
X01014Y00188*
X00998Y00151D02*
D01*
X00998Y00154*
X00997Y00157*
X00997Y00161*
X00996Y00164*
X00995Y00167*
X00994Y0017*
X00992Y00173*
X0099Y00176*
X00989Y00179*
X00987Y00181*
X00984Y00184*
X00984Y00185*
X01003Y00134D02*
D01*
X01006Y00134*
X0101Y00135*
X01013Y00135*
X01016Y00136*
X01019Y00137*
X01022Y00138*
X01026Y0014*
X01028Y00142*
X01031Y00143*
X01034Y00146*
X01036Y00148*
X01037Y00148*
X00931D02*
D01*
X00933Y00146*
X00936Y00144*
X00938Y00142*
X00941Y0014*
X00944Y00139*
X00947Y00137*
X00951Y00136*
X00954Y00136*
X00957Y00135*
X0096Y00134*
X00964Y00134*
X00965Y00134*
X01037Y00148D02*
D01*
X01038Y00149*
X01039Y0015*
X01039Y00151*
X0104Y00153*
X01041Y00154*
X01041Y00155*
X01042Y00156*
X01042Y00157*
X01042Y00159*
X01042Y0016*
X01042Y00161*
X01042Y00162*
X01037Y00223D02*
D01*
X01034Y00226*
X01032Y00228*
X01029Y0023*
X01026Y00232*
X01023Y00233*
X0102Y00234*
X01017Y00235*
X01014Y00236*
X0101Y00237*
X01007Y00237*
X01004Y00238*
X01003Y00238*
X00965D02*
D01*
X00961Y00237*
X00958Y00237*
X00955Y00237*
X00951Y00236*
X00948Y00235*
X00945Y00233*
X00942Y00232*
X00939Y0023*
X00936Y00228*
X00934Y00226*
X00931Y00224*
X00931Y00223*
X01042Y0021D02*
D01*
X01042Y00212*
X01042Y00213*
X01042Y00214*
X01042Y00215*
X01041Y00217*
X01041Y00218*
X0104Y00219*
X0104Y0022*
X01039Y00221*
X01038Y00222*
X01037Y00223*
X01037Y00223*
X0097Y00145D02*
D01*
X0097Y00149*
X00969Y00152*
X00969Y00155*
X00968Y00158*
X00967Y00162*
X00966Y00165*
X00964Y00168*
X00963Y0017*
X00961Y00173*
X00959Y00176*
X00957Y00178*
X00956Y00179*
X00942Y00212D02*
D01*
X00942Y00209*
X00942Y00206*
X00943Y00203*
X00944Y00199*
X00945Y00196*
X00946Y00193*
X00947Y0019*
X00949Y00187*
X00951Y00185*
X00953Y00182*
X00955Y0018*
X00956Y00179*
X01026Y00159D02*
Y00212D01*
X00942Y00159D02*
Y00212D01*
X01042Y00162D02*
Y00187D01*
X00998Y00145D02*
Y00226D01*
X0097Y00145D02*
Y00226D01*
X00925Y00162D02*
Y00185D01*
X01042Y00187D02*
Y0021D01*
X01012Y0019D02*
X01014Y00188D01*
X00998Y00218D02*
Y00226D01*
X0097Y00218D02*
Y00226D01*
Y00218D02*
Y00226D01*
X00998Y00224D02*
Y00226D01*
X00965Y00238D02*
X0097D01*
X01003*
X00956Y00179D02*
X00956Y00179D01*
X00965Y00134D02*
X0097D01*
X01003*
X00925Y00185D02*
Y0021D01*
X00937Y00112D02*
X00934Y00115D01*
X00931Y00116*
X00926*
X00923Y00115*
X0092Y00112*
X00919Y00107*
Y00104*
X0092Y001*
X00923Y00097*
X00926Y00095*
X00931*
X00934Y00097*
X00937Y001*
X0096Y00112D02*
X00958Y00115D01*
X00954Y00116*
X00949*
X00945Y00115*
X00943Y00112*
X00945Y00109*
X00948Y00107*
X00955Y00106*
X00958Y00104*
X0096Y00101*
Y001*
X00958Y00097*
X00954Y00095*
X00949*
X00945Y00097*
X00943Y001*
X00966Y00116D02*
X00972Y00095D01*
X00978Y00116D02*
X00972Y00095D01*
X00978Y00116D02*
X00984Y00095D01*
X0099Y00116D02*
X00984Y00095D01*
X00999Y00098D02*
X00998Y00097D01*
X00999Y00095*
X01001Y00097*
X00999Y00098*
X01026Y00112D02*
X01023Y00115D01*
X0102Y00116*
X01015*
X01012Y00115*
X01009Y00112*
X01008Y00107*
Y00104*
X01009Y001*
X01012Y00097*
X01015Y00095*
X0102*
X01023Y00097*
X01026Y001*
X01032Y00116D02*
X01049Y00095D01*
Y00116D02*
X01032Y00095D01*
X00926Y00078D02*
Y00055D01*
X00918Y00078D02*
X00934D01*
X00953Y00073D02*
X00952Y00075D01*
X0095Y00077*
X00948Y00078*
X00943*
X00941Y00077*
X00939Y00075*
X00938Y00073*
X00936Y00069*
Y00064*
X00938Y0006*
X00939Y00058*
X00941Y00056*
X00943Y00055*
X00948*
X0095Y00056*
X00952Y00058*
X00953Y0006*
X00976Y00075D02*
X00973Y00077D01*
X0097Y00078*
X00966*
X00962Y00077*
X0096Y00075*
Y00073*
X00961Y0007*
X00962Y00069*
X00964Y00068*
X00971Y00066*
X00973Y00065*
X00975Y00064*
X00976Y00061*
Y00058*
X00973Y00056*
X0097Y00055*
X00966*
X00962Y00056*
X0096Y00058*
X00982Y00073D02*
Y00074D01*
X00983Y00076*
X00984Y00077*
X00987Y00078*
X00991*
X00993Y00077*
X00994Y00076*
X00996Y00074*
Y00071*
X00994Y00069*
X00992Y00066*
X00981Y00055*
X00997*
X01009Y00078D02*
X01005Y00077D01*
X01003Y00074*
X01002Y00068*
Y00065*
X01003Y00059*
X01005Y00056*
X01009Y00055*
X01011*
X01014Y00056*
X01017Y00059*
X01018Y00065*
Y00068*
X01017Y00074*
X01014Y00077*
X01011Y00078*
X01009*
X01024Y00073D02*
Y00074D01*
X01025Y00076*
X01026Y00077*
X01029Y00078*
X01033*
X01035Y00077*
X01037Y00076*
X01038Y00074*
Y00071*
X01037Y00069*
X01034Y00066*
X01023Y00055*
X01039*
X01044Y00074D02*
X01046Y00075D01*
X0105Y00078*
Y00055*
G54D30*
X00797Y01082D03*
X00305D03*
G54D31*
X00994Y0096D03*
Y00771D03*
G54D32*
X00451Y00059D03*
X00551D03*
X00651D03*
M02*