%FSTAX23Y23*%
%MOIN*%
%SFA1B1*%

%IPPOS*%
%ADD25R,0.204720X0.047240*%
%ADD26C,0.066930*%
%ADD27C,0.019680*%
%LNcsgb-1*%
%LPD*%
G36*
X01102Y00937D02*
Y00921D01*
X00904*
X00898Y00923*
X00894Y00928*
X00891Y00933*
Y00937*
Y00984*
Y00987*
X00894Y00993*
X00898Y00997*
X00904Y01*
X01102*
Y00937*
G37*
G36*
X00203Y00997D02*
X00208Y00993D01*
X0021Y00987*
Y00984*
Y00937*
Y00933*
X00208Y00928*
X00203Y00923*
X00198Y00921*
X0*
Y00937*
Y01*
X00198*
X00203Y00997*
G37*
G36*
X01102Y01043D02*
Y01019D01*
X00907*
X00904Y01019*
X00897Y01018*
X0089Y01015*
X00885Y01011*
X0088Y01006*
X00876Y01*
X00873Y00994*
X00872Y00987*
X00872Y00984*
Y00937*
X00872Y00933*
X00873Y00926*
X00876Y0092*
X0088Y00914*
X00885Y00909*
X0089Y00905*
X00897Y00903*
X00904Y00901*
X00907Y00901*
X01102*
Y00866*
Y0083*
X00907*
X00904Y0083*
X00897Y00829*
X0089Y00826*
X00885Y00822*
X0088Y00817*
X00876Y00811*
X00873Y00805*
X00872Y00798*
X00872Y00795*
Y00748*
X00872Y00744*
X00873Y00737*
X00876Y00731*
X0088Y00725*
X00885Y0072*
X0089Y00716*
X00897Y00714*
X00904Y00712*
X00907Y00712*
X01102*
Y00657*
Y00118*
X00944*
X01102*
Y0*
X00708*
Y00059*
X00708Y00064*
X00706Y00076*
X00701Y00086*
X00695Y00096*
X00687Y00104*
X00677Y00111*
X00666Y00115*
X00655Y00117*
X00649Y00118*
X00452*
X00446Y00117*
X00435Y00115*
X00424Y00111*
X00415Y00104*
X00407Y00096*
X004Y00086*
X00396Y00076*
X00393Y00064*
X00393Y00059*
Y00059*
X00393Y00053*
X00396Y00041*
X004Y00031*
X00407Y00021*
X00415Y00013*
X00424Y00006*
X00435Y00002*
X00446Y0*
X00452Y0*
X00393*
X0*
Y00118*
X00157*
X0*
Y00657*
Y00712*
X00194*
X00198Y00712*
X00205Y00714*
X00211Y00716*
X00217Y0072*
X00222Y00725*
X00226Y00731*
X00228Y00737*
X0023Y00744*
X0023Y00748*
Y00795*
X0023Y00798*
X00228Y00805*
X00226Y00811*
X00222Y00817*
X00217Y00822*
X00211Y00826*
X00205Y00829*
X00198Y0083*
X00194Y0083*
X0*
Y00866*
Y00901*
X00194*
X00198Y00901*
X00205Y00903*
X00211Y00905*
X00217Y00909*
X00222Y00914*
X00226Y0092*
X00228Y00926*
X0023Y00933*
X0023Y00937*
Y00984*
X0023Y00987*
X00228Y00994*
X00226Y01*
X00222Y01006*
X00217Y01011*
X00211Y01015*
X00205Y01018*
X00198Y01019*
X00194Y01019*
X0*
Y01043*
Y01181*
X01102*
Y01043*
G37*
G36*
Y00795D02*
Y00732D01*
X00904*
X00898Y00734*
X00894Y00739*
X00891Y00744*
Y00748*
Y00795*
Y00798*
X00894Y00804*
X00898Y00808*
X00904Y00811*
X01102*
Y00795*
G37*
G36*
X00203Y00808D02*
X00208Y00804D01*
X0021Y00798*
Y00795*
Y00748*
Y00744*
X00208Y00739*
X00203Y00734*
X00198Y00732*
X0*
Y00795*
Y00811*
X00198*
X00203Y00808*
G37*
G36*
X00708Y0D02*
X00649D01*
X00655Y0*
X00666Y00002*
X00677Y00006*
X00687Y00013*
X00695Y00021*
X00701Y00031*
X00706Y00041*
X00708Y00053*
X00708Y00059*
Y0*
G37*
G54D25*
X00994Y0096D03*
Y00771D03*
G54D26*
X00451Y00059D03*
X00551D03*
X00651D03*
G54D27*
X00724Y01112D03*
X00718Y01082D03*
X00767Y01009D03*
X00797Y01003D03*
Y01161D03*
X00767Y01155D03*
X00852Y01027D03*
X00869Y01112D03*
X00875Y01082D03*
X00724Y01052D03*
X00869D03*
X00852Y01138D03*
X00741Y01027D03*
X00827Y01009D03*
Y01155D03*
X00741Y01138D03*
X00232Y01052D03*
Y01112D03*
X00274Y01009D03*
X0036Y01027D03*
X00377Y01052D03*
Y01112D03*
X0036Y01138D03*
X00226Y01082D03*
X00305Y01003D03*
Y01161D03*
X00274Y01155D03*
X00383Y01082D03*
X00335Y01009D03*
X00249Y01027D03*
Y01138D03*
X00335Y01155D03*
M02*